<svg xmlns="http://www.w3.org/2000/svg" viewBox="0 0 512 366" width="512" height="366">
	<style>
		tspan { white-space:pre }
		.shp0 { fill: #306fc5 } 
		.shp1 { opacity: 0.149;fill: #202121 } 
		.shp2 { fill: #ffffff } 
	</style>
	<path id="Layer" class="shp0" d="M512 329.28C512 346 498.45 359.55 481.74 359.55L30.27 359.55C13.55 359.55 0 346 0 329.28L0 36.72C0 20 13.55 6.45 30.27 6.45L481.74 6.45C498.45 6.45 512 20 512 36.72L512 329.28L512 329.28Z" />
	<path id="Layer" class="shp1" d="M21.52 329.28L21.52 36.72C21.52 20 35.07 6.45 51.78 6.45L30.26 6.45C13.55 6.45 0 20 0 36.72L0 329.28C0 346 13.55 359.55 30.27 359.55L51.78 359.55C35.07 359.55 21.52 346 21.52 329.28Z" />
	<g id="Layer">
		<path id="Layer" class="shp2" d="M74.59 147.75L89.89 147.75L82.24 128.28L74.59 147.75Z" />
		<path id="Layer" class="shp2" d="M155.95 213.11L155.95 222.15L181.68 222.15L181.68 231.88L155.95 231.88L155.95 242.32L184.46 242.32L197.67 227.71L185.15 213.11L155.95 213.11Z" />
		<path id="Layer" class="shp2" d="M356.9 128.28L348.55 147.75L364.55 147.75L356.9 128.28Z" />
		<path id="Layer" class="shp2" d="M230.35 247.88L230.35 208.24L212.27 227.71L230.35 247.88Z" />
		<path id="Layer" class="shp2" d="M264.42 219.37C263.72 215.2 260.94 213.11 256.77 213.11L242.17 213.11L242.17 225.62L257.47 225.62C261.64 225.62 264.42 223.54 264.42 219.37Z" />
		<path id="Layer" class="shp2" d="M313.09 224.24C314.48 223.54 315.18 221.45 315.18 219.37C315.88 216.59 314.48 215.2 313.09 214.5C311.7 213.8 309.61 213.8 307.53 213.8L293.62 213.8L293.62 224.93L307.53 224.93C309.61 224.93 311.7 224.93 313.09 224.24Z" />
		<path id="Layer" fill-rule="evenodd" class="shp2" d="M413.22 110.2L444.51 110.2L444.51 178.34L411.83 178.34L405.57 167.91L405.57 178.34L365.24 178.34L361.07 167.22L351.34 167.22L347.17 178.34L326.3 178.34C317.96 178.34 311.7 176.26 307.53 174.17L307.53 178.34L257.47 178.34L257.47 163.04C257.47 160.96 257.47 160.96 256.08 160.96L254.68 160.96L254.68 179.04L158.03 179.04L158.03 170.69L154.55 179.04L134.39 179.04L130.91 170.69L130.91 179.04L90.59 179.04L86.41 167.91L77.38 167.91L73.2 178.34L72.95 179.04L36.75 179.04L37.04 178.34L53.03 142.88L66.94 110.2L97.54 110.2L101.01 118.54L101.01 110.2L136.48 110.2L144.12 127.58L151.78 110.2L263.73 110.2C269.29 110.2 273.46 111.59 276.94 114.37L276.94 110.2L308.23 110.2L308.23 114.37C313.79 111.59 320.05 110.2 327.69 110.2L372.2 110.2L376.37 118.54L376.37 110.2L409.05 110.2L413.22 118.54L413.22 110.2ZM177.5 168.61L177.5 119.93L158.72 119.93L144.82 153.31L144.59 154.03L138.29 139.72L129.52 120.63L129.5 120.63L129.17 119.93L110.75 119.93L110.75 166.52L91.28 119.93L73.9 119.93L53.33 168.61L65.55 168.61L70.42 158.18L94.06 158.18L98.93 168.61L122.57 168.61L122.57 130.36L139.26 168.61L149.5 168.61L165.68 131.94L165.68 131.96L166.38 130.36L166.38 168.61L177.5 168.61ZM225.48 130.36L225.48 119.94L186.54 119.94L186.54 169.3L225.48 169.3L225.48 158.88L198.36 158.88L198.36 149.14L224.78 149.14L224.78 139.4L198.36 139.4L198.36 130.36L225.48 130.36ZM270.68 145.66C274.09 144.29 278.84 140.23 279 132.83C278.92 127.46 276.87 124.07 273.46 122.02C269.98 119.94 265.81 119.94 259.55 119.94L233.13 119.94L233.13 168.61L244.95 168.61L244.95 151.23L257.47 151.23C260.74 151.23 262.72 151.24 263.76 151.91C264.49 152.22 265.15 152.65 265.81 153.31C267.9 156.09 267.9 160.26 267.9 163.05L267.9 168.61L278.32 168.61L278.32 158.88C278.32 158.45 278.31 158.06 278.3 157.68C278.3 157.66 278.3 157.64 278.3 157.62C278.3 157.58 278.29 157.55 278.29 157.51C278.29 157.44 278.29 157.38 278.28 157.31C278.23 153.5 277.15 150.91 275.82 149.16C275.63 148.89 275.4 148.61 275.14 148.34C275.12 148.32 275.09 148.31 275.08 148.29C273 146.13 270.68 145.66 270.68 145.66ZM298.49 119.93L286.67 119.93L286.67 168.61L298.49 168.61L298.49 119.93ZM434.08 168.61L434.08 120.63L422.25 120.63L422.25 154.7L402.09 120.63L384.71 120.63L384.71 167.22L365.24 120.63L347.85 120.63L331.86 158.88L327 158.88C323.52 158.88 320.74 158.18 318.65 156.09C315.87 153.31 315.18 149.83 315.18 144.27C315.18 139.4 316.57 135.23 318.65 133.15C321.44 131.06 323.52 130.36 327.69 130.36L338.82 130.36L338.82 119.93L327.69 119.93C320.04 119.93 313.78 121.32 310.31 125.5C305.44 131.06 304.05 138.02 304.05 144.97C304.05 154.01 306.14 159.57 310.31 163.74C314.48 167.91 321.44 169.3 327 169.3L340.21 169.3L344.38 158.18L368.72 158.18L372.89 168.61L384.71 168.61L384.71 168.64L396.46 168.64L396.46 162.28L396.53 162.35L396.53 131.75L418.78 168.61L434.08 168.61ZM434.08 168.61L434.08 168.61L434.08 168.61L434.08 168.61L434.08 168.61Z" />
		<path id="Layer" class="shp2" d="M265.16 140.21C265.36 139.99 265.55 139.74 265.7 139.46C266.33 138.46 267.06 136.67 266.67 134.22C266.65 133.99 266.61 133.78 266.56 133.58C266.55 133.53 266.55 133.48 266.54 133.42L266.53 133.42C266.18 132.23 265.3 131.5 264.42 131.06C263.02 130.36 260.94 130.36 258.85 130.36L244.94 130.36L244.94 141.49L258.85 141.49C260.94 141.49 263.03 141.49 264.42 140.79C264.63 140.69 264.81 140.54 264.99 140.38L265 140.39C265 140.39 265.07 140.31 265.16 140.21Z" />
		<path id="Layer" fill-rule="evenodd" class="shp2" d="M475.06 239.49L475.1 239.53C475.08 239.77 475.05 240.01 475.02 240.25C474.42 248.36 470.38 255.16 463.98 259C459.81 261.79 453.55 262.48 447.29 262.48L417.39 262.48L417.39 258.31C413.91 261.09 407.66 262.48 401.4 262.48L306.83 262.48L306.83 246.49C306.83 244.4 306.83 244.4 304.74 244.4L303.36 244.4L303.36 262.48L272.07 262.48L272.07 243.7C267.2 245.79 260.94 245.79 256.08 245.79L252.6 245.79L252.6 261.79L213.65 261.79L204.94 251.73L194.89 261.79L133.7 261.79L133.7 191.55L196.27 191.55L205.31 201.98L215.05 191.55L256.76 191.55C260.94 191.55 269.29 192.25 272.76 195.72L272.76 191.55L310.31 191.55C313.79 191.55 321.44 192.25 325.61 195.72L325.61 191.55L382.63 191.55L382.63 195.73C385.41 192.95 391.66 191.55 396.53 191.55L428.52 191.55L428.52 195.73C428.52 195.73 433.78 191.55 438.12 191.55C442.45 191.55 471.6 191.55 471.6 191.55L471.6 193.64L471.63 193.64L471.63 224.93C473.72 228.41 475.11 233.28 475.11 238.14C475.11 238.6 475.09 239.04 475.06 239.49ZM276.24 217.28C276.24 215.46 276.03 213.86 275.66 212.42C272.63 205.14 264.62 203.38 257.46 203.38L220.61 203.38L206.01 219.37L205.66 219.73L203.06 216.9L190.71 203.38L145.52 203.38L145.52 252.05L190.02 252.05L205.31 236.05L205.96 236.8L206.01 236.75L219.31 252.05L242.17 252.05L242.17 233.97L256.08 233.97C266.5 233.97 276.24 231.19 276.24 217.28ZM319.35 229.11C322.83 227.71 327.69 223.54 327.69 215.89C327.69 210.33 324.91 206.85 321.44 204.77C317.96 202.68 313.09 202.68 307.53 202.68L281.11 202.68L281.11 252.05L292.93 252.05L292.93 233.97L305.44 233.97C309.61 233.97 312.4 233.97 313.79 236.05C315.87 238.14 315.87 243.01 315.87 245.79L315.87 252.05L327.69 252.05L327.69 242.32C327.69 238.14 327 235.36 325.61 233.28C324.91 231.88 322.83 230.49 319.35 229.11ZM373.59 202.68L334.65 202.68L334.65 252.05L373.59 252.05L373.59 241.62L346.47 241.62L346.47 231.88L372.89 231.88L372.89 222.15L346.47 222.15L346.47 213.11L373.59 213.11L373.59 202.68ZM420.87 236.75C420.87 231.89 419.48 228.41 417.39 226.32C414.61 223.54 410.44 222.15 404.18 222.15L397.92 222.15C396.53 222.15 395.14 222.15 393.75 221.45C392.36 220.76 390.97 220.07 390.97 217.98C390.97 216.59 390.97 215.2 392.36 214.5C393.75 213.81 395.14 213.81 397.23 213.81L418.78 213.81L418.78 201.99L395.84 201.99C383.32 201.99 379.15 209.64 379.15 216.59C379.15 231.89 392.36 231.19 403.49 231.89C405.57 231.89 406.96 232.58 407.66 233.28C408.36 233.97 409.05 235.36 409.05 236.75C409.05 238.14 408.36 239.53 407.66 240.23C406.27 241.62 404.87 241.62 402.79 241.62L380.54 241.62L380.54 252.05L402.79 252.05C414.61 252.05 420.87 247.18 420.87 236.75ZM466.76 236.75C466.76 235.85 466.67 235.04 466.55 234.26C465.12 226.81 458.74 223.96 456.82 223.26C454.71 222.52 452.42 222.15 449.38 222.15L443.12 222.15C441.73 222.15 440.34 222.15 438.95 221.45C436.86 220.76 436.16 220.07 436.16 217.98C436.16 216.59 436.86 215.2 437.56 214.5C438.95 213.81 440.34 213.81 442.43 213.81L463.98 213.81L463.98 201.99L441.04 201.99C439.75 201.99 438.57 202.08 437.45 202.24C428.13 204.01 424.35 209.98 424.35 216.59C424.35 231.89 437.56 231.19 448.68 231.89C450.77 231.89 452.16 232.58 452.86 233.28C453.55 233.97 454.25 235.36 454.25 236.75C454.25 238.14 453.55 239.53 452.86 240.23C451.47 241.62 450.07 241.62 447.99 241.62L425.74 241.62L425.74 252.05L447.99 252.05C454.94 252.05 459.81 249.96 462.59 247.18C465.37 244.4 466.76 240.93 466.76 236.75Z" />
	</g>
	<g id="Layer">
	</g>
	<g id="Layer">
	</g>
	<g id="Layer">
	</g>
	<g id="Layer">
	</g>
	<g id="Layer">
	</g>
	<g id="Layer">
	</g>
	<g id="Layer">
	</g>
	<g id="Layer">
	</g>
	<g id="Layer">
	</g>
	<g id="Layer">
	</g>
	<g id="Layer">
	</g>
	<g id="Layer">
	</g>
	<g id="Layer">
	</g>
	<g id="Layer">
	</g>
	<g id="Layer">
	</g>
</svg>