<svg xmlns="http://www.w3.org/2000/svg" viewBox="0 0 125 95" width="100" height="76">
	<style>
		tspan { white-space:pre }
		.shp0 { fill: none } 
		.shp1 { fill: #231f20 } 
		.shp2 { fill: #ff5f00 } 
		.shp3 { fill: #eb001b } 
		.shp4 { fill: #f79e1b } 
	</style>
	<g id="Layer_2">
		<g id="Layer_1-2">
			<path id="Layer" class="shp0" d="M-11 -13L135.8 -13L135.8 107.41L-11 107.41L-11 -13Z" />
			<path id="Layer" fill-rule="evenodd" class="shp1" d="M23.25 92.3L23.25 86.98C23.25 85.36 22.57 84.46 21.15 84.46C20.82 84.44 20.49 84.5 20.19 84.63C19.88 84.75 19.61 84.94 19.39 85.18C19.16 85.43 19 85.71 18.9 86.03C18.8 86.34 18.77 86.67 18.81 87L18.81 92.3L16.71 92.3L16.71 86.98C16.71 85.36 16.01 84.46 14.63 84.46C14.3 84.44 13.97 84.5 13.67 84.62C13.36 84.75 13.09 84.94 12.86 85.18C12.64 85.42 12.47 85.71 12.37 86.03C12.27 86.34 12.25 86.67 12.29 87L12.29 92.26L10.19 92.26L10.19 82.7L12.27 82.7L12.27 83.88C12.42 83.65 12.6 83.44 12.8 83.26C13.01 83.08 13.24 82.92 13.48 82.8C13.73 82.67 13.99 82.58 14.25 82.53C14.52 82.47 14.8 82.45 15.07 82.46C15.38 82.45 15.7 82.48 16 82.55C16.31 82.62 16.61 82.73 16.88 82.88C17.16 83.02 17.42 83.21 17.64 83.43C17.87 83.64 18.07 83.89 18.23 84.16C18.41 83.88 18.62 83.63 18.87 83.41C19.11 83.19 19.38 83 19.68 82.85C19.97 82.7 20.28 82.59 20.61 82.53C20.93 82.46 21.26 82.44 21.59 82.46C22.09 82.43 22.6 82.51 23.07 82.69C23.55 82.87 23.97 83.15 24.33 83.51C24.68 83.87 24.96 84.3 25.14 84.77C25.31 85.25 25.38 85.76 25.35 86.26L25.35 92.26L23.25 92.3ZM56.44 84.6L53.04 84.6L53.04 88.96C53.04 89.92 53.42 90.56 54.42 90.56C54.58 90.55 54.74 90.54 54.9 90.51C55.06 90.49 55.22 90.45 55.37 90.41C55.53 90.36 55.68 90.31 55.83 90.24C55.98 90.18 56.12 90.1 56.26 90.02L56.86 91.8C56.67 91.92 56.46 92.03 56.26 92.12C56.05 92.21 55.83 92.29 55.61 92.35C55.39 92.42 55.17 92.46 54.94 92.49C54.72 92.53 54.49 92.54 54.26 92.54C51.8 92.54 50.94 91.22 50.94 89L50.94 84.6L49 84.6L49 82.7L50.9 82.7L50.9 79.8L53 79.8L53 82.7L56.42 82.7L56.44 84.6ZM74.12 82.42C74.25 82.42 74.37 82.43 74.5 82.44C74.62 82.45 74.75 82.47 74.87 82.49C74.99 82.51 75.12 82.54 75.24 82.57C75.36 82.6 75.48 82.64 75.6 82.68L74.96 84.68C74.86 84.64 74.75 84.6 74.65 84.57C74.54 84.54 74.43 84.52 74.32 84.5C74.21 84.48 74.1 84.46 73.99 84.45C73.88 84.44 73.77 84.44 73.66 84.44C72.34 84.44 71.66 85.32 71.66 86.9L71.66 92.26L69.58 92.26L69.58 82.7L71.64 82.7L71.64 83.86C71.77 83.64 71.92 83.44 72.1 83.26C72.28 83.09 72.49 82.94 72.71 82.81C72.93 82.69 73.16 82.6 73.41 82.54C73.66 82.48 73.91 82.45 74.16 82.46L74.12 82.42ZM46.42 85.14C46.19 85.01 45.96 84.89 45.72 84.79C45.47 84.69 45.23 84.61 44.97 84.54C44.72 84.47 44.46 84.42 44.2 84.38C43.94 84.34 43.68 84.32 43.42 84.32C42.28 84.32 41.6 84.8 41.6 85.44C41.6 86.08 42.32 86.26 43.22 86.38L44.22 86.52C46.3 86.82 47.56 87.56 47.56 89.38C47.56 91.2 45.96 92.5 43.2 92.5C42.83 92.51 42.47 92.49 42.1 92.44C41.74 92.39 41.38 92.32 41.03 92.21C40.68 92.11 40.34 91.97 40.01 91.81C39.68 91.66 39.36 91.47 39.06 91.26L40.06 89.64C40.29 89.81 40.53 89.96 40.78 90.09C41.03 90.22 41.3 90.32 41.57 90.41C41.84 90.49 42.11 90.55 42.39 90.59C42.67 90.63 42.96 90.65 43.24 90.64C44.66 90.64 45.42 90.22 45.42 89.48C45.42 88.94 44.88 88.64 43.74 88.48L42.74 88.34C40.6 88.04 39.44 87.08 39.44 85.52C39.44 83.62 41.02 82.46 43.44 82.46C43.78 82.45 44.12 82.46 44.46 82.5C44.8 82.53 45.13 82.6 45.46 82.68C45.79 82.76 46.11 82.87 46.43 83C46.74 83.13 47.05 83.29 47.34 83.46L46.42 85.14ZM103.01 82.42C103.14 82.42 103.26 82.43 103.39 82.44C103.51 82.45 103.64 82.47 103.76 82.49C103.88 82.51 104.01 82.54 104.13 82.57C104.25 82.6 104.37 82.64 104.49 82.68L103.85 84.68C103.75 84.64 103.64 84.6 103.54 84.57C103.43 84.54 103.32 84.52 103.21 84.5C103.1 84.48 102.99 84.46 102.88 84.45C102.77 84.44 102.66 84.44 102.55 84.44C101.23 84.44 100.55 85.32 100.55 86.9L100.55 92.26L98.47 92.26L98.47 82.7L100.53 82.7L100.53 83.86C100.66 83.64 100.81 83.44 100.99 83.26C101.17 83.09 101.38 82.94 101.6 82.81C101.82 82.69 102.05 82.6 102.3 82.54C102.55 82.48 102.8 82.45 103.05 82.46L103.01 82.42ZM76.25 87.42C76.23 86.75 76.34 86.08 76.59 85.45C76.84 84.83 77.22 84.26 77.7 83.79C78.18 83.32 78.75 82.96 79.38 82.72C80.01 82.48 80.68 82.38 81.35 82.42C81.66 82.4 81.97 82.42 82.27 82.46C82.58 82.5 82.88 82.57 83.18 82.67C83.47 82.76 83.75 82.89 84.02 83.04C84.3 83.19 84.55 83.36 84.79 83.56L83.79 85.24C83.61 85.1 83.42 84.98 83.23 84.88C83.03 84.77 82.82 84.68 82.61 84.61C82.4 84.54 82.18 84.48 81.96 84.44C81.74 84.4 81.51 84.38 81.29 84.38C80.52 84.44 79.8 84.79 79.28 85.36C78.76 85.93 78.47 86.67 78.47 87.44C78.47 88.21 78.76 88.95 79.28 89.52C79.8 90.09 80.52 90.44 81.29 90.5C81.51 90.5 81.74 90.48 81.96 90.44C82.18 90.4 82.4 90.34 82.61 90.27C82.82 90.2 83.03 90.11 83.23 90C83.42 89.9 83.61 89.78 83.79 89.64L84.79 91.32C84.55 91.52 84.3 91.69 84.02 91.84C83.75 91.99 83.47 92.12 83.18 92.21C82.88 92.31 82.58 92.38 82.27 92.42C81.97 92.46 81.66 92.48 81.35 92.46C80.68 92.5 80.01 92.4 79.38 92.16C78.75 91.92 78.18 91.56 77.7 91.09C77.22 90.62 76.84 90.05 76.59 89.43C76.34 88.8 76.23 88.13 76.25 87.46L76.25 87.42ZM95.73 92.22L93.65 92.22L93.65 91.06C93.47 91.29 93.27 91.49 93.05 91.67C92.82 91.85 92.58 92 92.32 92.12C92.06 92.24 91.79 92.33 91.5 92.39C91.22 92.45 90.94 92.47 90.65 92.46C89.32 92.46 88.05 91.93 87.11 91C86.18 90.06 85.65 88.79 85.65 87.46C85.65 86.13 86.18 84.86 87.11 83.92C88.05 82.99 89.32 82.46 90.65 82.46C90.94 82.45 91.22 82.47 91.5 82.53C91.79 82.59 92.06 82.68 92.32 82.8C92.58 82.92 92.82 83.07 93.05 83.25C93.27 83.43 93.47 83.63 93.65 83.86L93.65 82.7L95.73 82.7L95.73 92.22ZM88.15 88.62C88.29 89 88.5 89.34 88.77 89.62C89.04 89.91 89.37 90.14 89.74 90.29C90.1 90.45 90.49 90.53 90.89 90.52C92.04 90.51 93.08 89.82 93.53 88.76C93.99 87.71 93.77 86.48 92.97 85.64C92.18 84.81 90.97 84.52 89.88 84.92C88.8 85.31 88.06 86.31 87.99 87.46C87.96 87.86 88.02 88.25 88.15 88.62ZM62.92 82.48C65.6 82.48 67.46 84.48 67.46 87.48C67.46 87.76 67.46 88.02 67.46 88.28L60.36 88.28C60.4 88.62 60.5 88.95 60.67 89.25C60.83 89.55 61.05 89.81 61.31 90.03C61.58 90.25 61.88 90.41 62.21 90.51C62.54 90.61 62.88 90.65 63.22 90.62C63.47 90.62 63.72 90.59 63.97 90.55C64.21 90.5 64.46 90.44 64.69 90.35C64.93 90.27 65.16 90.16 65.38 90.04C65.6 89.92 65.8 89.78 66 89.62L67 91.16C66.72 91.39 66.43 91.58 66.11 91.76C65.8 91.93 65.47 92.07 65.14 92.18C64.8 92.29 64.45 92.37 64.1 92.42C63.74 92.46 63.39 92.48 63.03 92.46C61.7 92.48 60.43 91.97 59.47 91.04C58.52 90.12 57.98 88.86 57.96 87.53C57.94 86.2 58.45 84.93 59.38 83.97C60.3 83.02 61.56 82.48 62.89 82.46L62.92 82.48ZM62.85 84.32C62.53 84.31 62.21 84.36 61.92 84.47C61.62 84.58 61.34 84.75 61.11 84.96C60.87 85.18 60.68 85.44 60.54 85.72C60.41 86.01 60.33 86.32 60.31 86.64L65.31 86.64C65.3 86.33 65.24 86.02 65.11 85.74C64.99 85.45 64.81 85.19 64.58 84.98C64.36 84.76 64.09 84.59 63.8 84.48C63.51 84.37 63.2 84.31 62.89 84.32L62.85 84.32ZM115 92.22L113 92.22L113 91.06C112.82 91.29 112.62 91.49 112.4 91.67C112.17 91.85 111.93 92 111.67 92.12C111.41 92.24 111.14 92.33 110.85 92.39C110.57 92.45 110.29 92.47 110 92.46C108.67 92.46 107.4 91.93 106.46 91C105.53 90.06 105 88.79 105 87.46C105 86.13 105.53 84.86 106.46 83.92C107.4 82.99 108.67 82.46 110 82.46C110.29 82.45 110.57 82.47 110.85 82.53C111.14 82.59 111.41 82.68 111.67 82.8C111.93 82.92 112.17 83.07 112.4 83.25C112.62 83.43 112.82 83.63 113 83.86L113 78.86L115 78.86L115 92.22ZM118.49 90.87C118.49 90.87 118.48 90.87 118.47 90.87L118.49 90.87ZM118.57 90.87C118.6 90.88 118.63 90.88 118.66 90.89C118.7 90.89 118.73 90.9 118.76 90.91C118.79 90.92 118.82 90.93 118.85 90.94C118.88 90.95 118.91 90.96 118.93 90.98C118.96 90.99 118.99 91.01 119.01 91.03C119.04 91.04 119.07 91.06 119.09 91.08C119.11 91.1 119.14 91.12 119.16 91.14C119.18 91.16 119.2 91.18 119.22 91.21C119.24 91.23 119.26 91.26 119.28 91.28C119.3 91.31 119.31 91.33 119.33 91.36C119.34 91.38 119.36 91.41 119.37 91.44C119.4 91.5 119.41 91.56 119.43 91.62C119.44 91.68 119.45 91.75 119.45 91.81C119.45 91.87 119.44 91.94 119.43 92C119.41 92.06 119.4 92.12 119.37 92.18C119.36 92.21 119.34 92.24 119.33 92.26C119.31 92.29 119.3 92.31 119.28 92.34C119.26 92.36 119.24 92.39 119.22 92.41C119.2 92.44 119.18 92.46 119.16 92.48C119.14 92.5 119.11 92.52 119.09 92.54C119.07 92.56 119.04 92.58 119.01 92.59C118.99 92.61 118.96 92.63 118.93 92.64C118.91 92.66 118.88 92.67 118.85 92.68C118.82 92.69 118.79 92.7 118.76 92.71C118.73 92.72 118.7 92.73 118.66 92.74C118.63 92.75 118.6 92.75 118.57 92.75C118.54 92.76 118.5 92.76 118.47 92.76C118.38 92.76 118.28 92.75 118.19 92.72C118.1 92.69 118.02 92.65 117.94 92.6C117.86 92.55 117.78 92.49 117.72 92.42C117.66 92.35 117.61 92.27 117.57 92.18C117.55 92.12 117.53 92.06 117.51 92C117.5 91.94 117.49 91.87 117.49 91.81C117.49 91.75 117.5 91.68 117.51 91.62C117.53 91.56 117.55 91.5 117.57 91.44C117.58 91.41 117.6 91.38 117.61 91.36C117.63 91.33 117.64 91.31 117.66 91.28C117.68 91.26 117.7 91.23 117.72 91.21C117.74 91.18 117.76 91.16 117.78 91.14C117.8 91.12 117.83 91.1 117.85 91.08C117.87 91.06 117.9 91.04 117.93 91.03C117.95 91.01 117.98 90.99 118.01 90.98C118.03 90.96 118.06 90.95 118.09 90.94C118.12 90.93 118.16 90.92 118.19 90.91C118.22 90.9 118.26 90.89 118.29 90.88C118.33 90.88 118.36 90.87 118.4 90.87C118.43 90.87 118.47 90.87 118.5 90.87L118.49 90.87C118.52 90.87 118.54 90.87 118.57 90.87ZM118.48 92.56C118.48 92.56 118.47 92.56 118.47 92.56L118.48 92.56ZM118.54 92.56C118.57 92.55 118.59 92.55 118.62 92.55C118.64 92.54 118.67 92.53 118.69 92.53C118.71 92.52 118.74 92.51 118.76 92.5C118.78 92.49 118.8 92.48 118.82 92.47C118.84 92.46 118.86 92.44 118.88 92.43C118.9 92.42 118.92 92.4 118.94 92.39C118.96 92.37 118.97 92.36 118.99 92.34C119.05 92.27 119.1 92.19 119.13 92.11C119.17 92.02 119.18 91.93 119.18 91.84C119.18 91.75 119.17 91.66 119.13 91.57C119.1 91.49 119.05 91.41 118.99 91.34C118.97 91.32 118.96 91.31 118.94 91.29C118.92 91.28 118.9 91.26 118.88 91.25C118.86 91.24 118.84 91.22 118.82 91.21C118.8 91.2 118.78 91.19 118.76 91.18C118.74 91.17 118.71 91.16 118.69 91.15C118.67 91.15 118.64 91.14 118.62 91.13C118.59 91.13 118.57 91.13 118.54 91.12C118.52 91.12 118.49 91.12 118.47 91.12C118.45 91.12 118.42 91.12 118.4 91.12C118.37 91.13 118.35 91.13 118.32 91.14C118.3 91.14 118.27 91.15 118.25 91.15C118.23 91.16 118.2 91.17 118.18 91.18C118.16 91.19 118.14 91.2 118.11 91.21C118.09 91.22 118.07 91.23 118.05 91.25C118.03 91.26 118.01 91.28 117.99 91.29C117.98 91.31 117.96 91.32 117.94 91.34C117.88 91.41 117.83 91.49 117.8 91.57C117.76 91.66 117.75 91.75 117.75 91.84C117.75 91.93 117.76 92.02 117.8 92.11C117.83 92.19 117.88 92.27 117.94 92.34C117.96 92.36 117.98 92.37 117.99 92.39C118.01 92.4 118.03 92.42 118.05 92.43C118.07 92.45 118.09 92.46 118.11 92.47C118.14 92.48 118.16 92.49 118.18 92.5C118.21 92.51 118.23 92.52 118.26 92.53C118.28 92.54 118.31 92.54 118.34 92.55C118.36 92.55 118.39 92.56 118.42 92.56C118.45 92.56 118.47 92.56 118.5 92.56L118.48 92.56C118.5 92.56 118.52 92.56 118.54 92.56ZM118.53 91.37C118.55 91.37 118.58 91.37 118.6 91.37C118.62 91.38 118.64 91.38 118.67 91.39C118.69 91.39 118.71 91.4 118.73 91.41C118.75 91.42 118.77 91.44 118.79 91.45C118.81 91.46 118.82 91.48 118.83 91.49C118.84 91.51 118.85 91.53 118.86 91.54C118.87 91.56 118.87 91.58 118.88 91.6C118.88 91.62 118.88 91.64 118.88 91.66C118.88 91.68 118.88 91.69 118.88 91.71C118.87 91.73 118.87 91.74 118.86 91.76C118.86 91.77 118.85 91.79 118.84 91.8C118.83 91.82 118.82 91.83 118.81 91.84C118.8 91.85 118.78 91.86 118.76 91.88C118.75 91.89 118.73 91.89 118.71 91.9C118.69 91.91 118.68 91.92 118.66 91.92C118.64 91.93 118.62 91.93 118.6 91.93L118.89 92.26L118.66 92.26L118.39 91.93L118.3 91.93L118.3 92.26L118.11 92.26L118.11 91.38L118.53 91.37ZM118.31 91.54L118.31 91.78L118.53 91.78C118.54 91.78 118.55 91.79 118.56 91.79C118.57 91.79 118.58 91.79 118.59 91.79C118.6 91.79 118.61 91.79 118.62 91.79C118.63 91.79 118.64 91.78 118.65 91.78C118.65 91.77 118.66 91.77 118.66 91.76C118.66 91.75 118.66 91.74 118.66 91.73C118.66 91.73 118.66 91.72 118.66 91.71C118.66 91.7 118.65 91.7 118.65 91.69C118.65 91.68 118.66 91.68 118.66 91.67C118.66 91.66 118.66 91.65 118.66 91.64C118.66 91.64 118.66 91.63 118.66 91.62C118.66 91.61 118.65 91.61 118.65 91.6C118.64 91.6 118.63 91.59 118.62 91.59C118.61 91.59 118.6 91.59 118.59 91.59C118.58 91.59 118.57 91.59 118.56 91.59C118.55 91.59 118.54 91.6 118.53 91.6L118.31 91.54ZM107.47 88.64C107.61 89.02 107.82 89.36 108.09 89.64C108.36 89.93 108.69 90.16 109.06 90.31C109.42 90.47 109.81 90.55 110.21 90.54C111.36 90.53 112.4 89.84 112.85 88.78C113.31 87.73 113.09 86.5 112.29 85.66C111.5 84.83 110.29 84.54 109.2 84.94C108.12 85.33 107.38 86.33 107.31 87.48C107.28 87.88 107.34 88.27 107.47 88.64ZM37.08 92.22L35 92.22L35 91.06C34.82 91.29 34.62 91.49 34.4 91.67C34.17 91.85 33.93 92 33.67 92.12C33.41 92.24 33.14 92.33 32.85 92.39C32.57 92.45 32.29 92.47 32 92.46C30.67 92.46 29.4 91.93 28.46 91C27.53 90.06 27 88.79 27 87.46C27 86.13 27.53 84.86 28.46 83.92C29.4 82.99 30.67 82.46 32 82.46C32.29 82.45 32.57 82.47 32.85 82.53C33.14 82.59 33.41 82.68 33.67 82.8C33.93 82.92 34.17 83.07 34.4 83.25C34.62 83.43 34.82 83.63 35 83.86L35 82.7L37.08 82.7L37.08 92.22ZM29.32 87.48C29.29 87.88 29.35 88.27 29.49 88.65C29.62 89.02 29.83 89.36 30.11 89.65C30.38 89.94 30.71 90.17 31.08 90.32C31.45 90.47 31.84 90.55 32.24 90.54C33.39 90.53 34.43 89.84 34.88 88.78C35.34 87.73 35.12 86.5 34.32 85.66C33.53 84.83 32.32 84.54 31.23 84.94C30.15 85.33 29.41 86.33 29.34 87.48L29.32 87.48Z" />
			<g id="_Group_">
				<path id="Layer" class="shp2" d="M46.65 9.85L78.15 9.85L78.15 66.46L46.65 66.46L46.65 9.85Z" />
				<path id="_Path_" class="shp3" d="M48.65 38.16C48.65 35.44 48.95 32.73 49.56 30.08C50.17 27.44 51.07 24.86 52.26 22.42C53.45 19.98 54.91 17.67 56.62 15.56C58.32 13.44 60.26 11.53 62.4 9.85C51.56 1.33 36.82 -0.25 24.42 5.78C12.02 11.8 4.16 24.37 4.16 38.16C4.16 51.94 12.02 64.51 24.42 70.53C36.82 76.56 51.56 74.98 62.4 66.46C60.26 64.78 58.32 62.87 56.62 60.75C54.91 58.64 53.45 56.34 52.26 53.89C51.08 51.45 50.17 48.88 49.56 46.23C48.95 43.59 48.65 40.88 48.65 38.16Z" />
				<path id="Layer" class="shp4" d="M120.65 38.16C120.65 44.92 118.75 51.53 115.16 57.26C111.58 62.99 106.46 67.59 100.38 70.54C94.31 73.49 87.52 74.67 80.81 73.95C74.09 73.23 67.71 70.64 62.4 66.46C66.69 63.09 70.15 58.79 72.53 53.89C74.92 48.99 76.16 43.61 76.16 38.15C76.16 32.7 74.92 27.32 72.53 22.42C70.15 17.52 66.69 13.22 62.4 9.85C67.71 5.67 74.09 3.08 80.81 2.36C87.52 1.64 94.31 2.82 100.38 5.77C106.46 8.72 111.58 13.32 115.16 19.05C118.75 24.78 120.65 31.39 120.65 38.15L120.65 38.16Z" />
				<path id="Layer" class="shp4" d="M117.21 60.46L117.21 59.3L117.68 59.3L117.68 59.06L116.49 59.06L116.49 59.3L117 59.3L117 60.46L117.21 60.46ZM119.52 60.46L119.52 59.06L119.16 59.06L118.74 60.06L118.32 59.06L118 59.06L118 60.46L118.26 60.46L118.26 59.41L118.65 60.32L118.92 60.32L119.31 59.41L119.31 60.47L119.52 60.46Z" />
			</g>
		</g>
	</g>
</svg>