<svg xmlns="http://www.w3.org/2000/svg" width="268" height="216" viewBox="0 0 268 216">
  <defs>
    <style>
      .cls-1 {
        fill: #3e5569;
      }
    </style>
  </defs>
  <title>Payment</title>
  <g id="Слой_2" data-name="Слой 2">
    <path class="cls-1" d="M210.65,35.89H57.35A19.63,19.63,0,0,0,37.72,55.52V166a19.63,19.63,0,0,0,19.63,19.63h153.3A19.63,19.63,0,0,0,230.28,166V55.52A19.63,19.63,0,0,0,210.65,35.89Zm-98.34,98.7h-15V106.33H96.09l-8.74,28.26H77l-8.74-28.28H67v28.28H52V87H67s6.57,0,8.32,6.24c1.62,5.84,6.24,22,6.24,22h1.25c.12-.44,4.64-16.28,6.24-22C90.76,87,97.32,87,97.32,87l0,0h15Zm53.87,0h-15V106.31H150l-10.4,23.29a8.64,8.64,0,0,1-6.66,5H118.76V87h15v28.28H135L145.59,92A8.39,8.39,0,0,1,152,87h14.14ZM204,119.41H187.81v15.18h-15v-26h46.48A16.2,16.2,0,0,1,204,119.41Zm15.89-12.9H194.25A23.92,23.92,0,0,1,170.73,87H204a16.22,16.22,0,0,1,16.22,16.22A16,16,0,0,1,219.92,106.52Z"/>
  </g>
</svg>
