<svg width="576" height="512" xmlns="http://www.w3.org/2000/svg">

 <g>
  <title>background</title>
  <rect fill="none" id="canvas_background" height="402" width="582" y="-1" x="-1"/>
 </g>
 <g>
  <title>Layer 1</title>
  <path fill="#3e5569" id="svg_1" d="m470.1,231.3s7.6,37.2 9.3,45l-33.4,0c3.3,-8.9 16,-43.5 16,-43.5c-0.2,0.3 3.3,-9.1 5.3,-14.9l2.8,13.4zm105.9,-151.3l0,352c0,26.5 -21.5,48 -48,48l-480,0c-26.5,0 -48,-21.5 -48,-48l0,-352c0,-26.5 21.5,-48 48,-48l480,0c26.5,0 48,21.5 48,48zm-423.5,251.2l63.2,-155.2l-42.5,0l-39.3,106l-4.3,-21.5l-14,-71.4c-2.3,-9.9 -9.4,-12.7 -18.2,-13.1l-64.7,0l-0.7,3.1c15.8,4 29.9,9.8 42.2,17.1l35.8,135l42.5,0zm94.4,0.2l25.2,-155.4l-40.2,0l-25.1,155.4l40.1,0zm139.9,-50.8c0.2,-17.7 -10.6,-31.2 -33.7,-42.3c-14.1,-7.1 -22.7,-11.9 -22.7,-19.2c0.2,-6.6 7.3,-13.4 23.1,-13.4c13.1,-0.3 22.7,2.8 29.9,5.9l3.6,1.7l5.5,-33.6c-7.9,-3.1 -20.5,-6.6 -36,-6.6c-39.7,0 -67.6,21.2 -67.8,51.4c-0.3,22.3 20,34.7 35.2,42.2c15.5,7.6 20.8,12.6 20.8,19.3c-0.2,10.4 -12.6,15.2 -24.1,15.2c-16,0 -24.6,-2.5 -37.7,-8.3l-5.3,-2.5l-5.6,34.9c9.4,4.3 26.8,8.1 44.8,8.3c42.2,0.1 69.7,-20.8 70,-53zm141.2,50.8l-32.4,-155.4l-31.1,0c-9.6,0 -16.9,2.8 -21,12.9l-59.7,142.5l42.2,0s6.9,-19.2 8.4,-23.3l51.6,0c1.2,5.5 4.8,23.3 4.8,23.3l37.2,0z"/>
 </g>
</svg>