<?xml version="1.0" encoding="utf-8"?>
<!-- Generator: Adobe Illustrator 21.1.0, SVG Export Plug-In . SVG Version: 6.00 Build 0)  -->
<svg version="1.1" id="Capa_1" xmlns="http://www.w3.org/2000/svg" xmlns:xlink="http://www.w3.org/1999/xlink" x="0px" y="0px"
	 viewBox="0 0 1956 222" style="enable-background:new 0 0 1956 222;" xml:space="preserve">
<style type="text/css">
	.st0{fill:#07A9E2;}
	.st1{fill:#009DDD;}
	.st2{fill:#0284CC;}
	.st3{fill:#FF2957;}
	.st4{fill:#ED1C2E;}
	.st5{fill:#0466B5;}
	.st6{fill:#FFFFFF;}
	.st7{fill:#D1094B;}
	.st8{fill:#DCE5E5;}
	.st9{fill:#4DB45E;}
	.st10{fill:url(#path24_1_);}
	.st11{fill:#3C58BF;}
	.st12{fill:#293688;}
	.st13{fill:#FFBC00;}
	.st14{fill:#F7981D;}
	.st15{fill:#ED7C00;}
	.st16{fill:#051244;}
	.st17{fill:#FFB600;}
	.st18{fill:#FF8500;}
	.st19{fill:#FF5050;}
	.st20{fill:#E52836;}
	.st21{fill:#CB2026;}
</style>
<path class="st0" d="M649.2,184.6c21.3-19.1,34.8-47.1,34.8-78.6s-13.5-58.9-34.8-78.6C630.7,10.7,605.5,0,578.5,0
	c-58.4,0-106.1,47.7-106.1,106.1s47.7,105.5,106.1,105.5C605.5,212.1,630.7,201.5,649.2,184.6L649.2,184.6z"/>
<path class="st1" d="M472.5,106.1c0,58.4,47.7,105.5,106.1,105.5c27.5,0,52.2-10.1,70.7-27.5l0,0c21.3-19.1,34.8-47.1,34.8-78.6
	s-13.5-58.4-34.8-78C630.7,10.7,605.5,0,578.5,0"/>
<path class="st2" d="M649.2,27.5C630.7,10.7,605.5,0,578.5,0c-1.7,0-3.4,0-5.1,0C540.4,24.1,519,62.9,519,106.1
	s21.3,81.9,53.9,105.5c1.7,0,3.4,0,5.1,0c27.5,0,52.2-10.1,70.7-27.5c21.3-19.1,34.8-47.1,34.8-78.6S670.6,47.1,649.2,27.5z"/>
<path class="st3" d="M720.5,0c-27.5,0-52.2,10.1-71.3,27.5c-3.9,3.4-7.3,7.3-10.7,11.2h21.3c2.8,3.4,5.6,7.3,7.9,11.2h-37.6
	c-2.2,3.9-4.5,7.3-6.2,11.2h49.9c1.7,3.9,3.4,7.3,4.5,11.2h-58.4c-1.1,3.9-2.2,7.3-3.4,11.2h65.1c1.7,7.3,2.2,14.6,2.2,22.4
	c0,11.8-1.7,23-5.6,33.7h-58.4c1.1,3.9,2.8,7.3,4.5,11.2h49.9c-1.7,3.9-3.9,7.9-6.2,11.2h-37.6c2.2,3.9,5.1,7.9,7.9,11.2h21.3
	c-3.4,3.9-6.7,7.9-10.7,11.2c19.1,16.8,43.8,27.5,71.3,27.5c58.4,0,105.5-47.1,105.5-105.5C826,47.7,778.9,0,720.5,0L720.5,0z"/>
<path class="st4" d="M720.5,0L720.5,0c-27.5,0-52.2,10.1-71.3,27.5c-3.9,3.4-7.3,7.3-10.7,11.2h21.3c2.8,3.4,5.6,7.3,7.9,11.2h-37.6
	c-2.2,3.9-4.5,7.3-6.2,11.2h49.9c1.7,3.9,3.4,7.3,4.5,11.2h-58.4c-1.1,3.9-2.2,7.3-3.4,11.2h65.1c1.7,7.3,2.2,14.6,2.2,22.4
	c0,11.8-1.7,23-5.6,33.7h-58.4c1.1,3.9,2.8,7.3,4.5,11.2h49.9c-1.7,3.9-3.9,7.9-6.2,11.2h-37.6c2.2,3.9,5.1,7.9,7.9,11.2h21.3
	c-3.4,3.9-6.7,7.9-10.7,11.2c19.1,16.8,43.8,27.5,71.3,27.5c58.4,0,105.5-47.1,105.5-105.5"/>
<path class="st5" d="M649.2,184.6c21.3-19.1,34.8-47.1,34.8-78.6s-13.5-58.9-34.8-78.6V184.6L649.2,184.6z"/>
<path class="st6" d="M789.5,129.1c0-1.7,1.7-3.4,3.4-3.4s3.4,1.7,3.4,3.4s-1.7,3.4-3.4,3.4C791.2,132.4,789.5,130.8,789.5,129.1
	L789.5,129.1z M792.9,131.9c1.7,0,2.2-1.1,2.2-2.8s-1.1-2.2-2.2-2.2c-1.7,0-2.8,1.1-2.8,2.2S791.8,131.9,792.9,131.9L792.9,131.9z
	 M792.9,130.2h-0.6v-2.8h1.1c0.6,0,0.6,0,0.6,0l0.6,0.6c0,0.6,0,0.6-0.6,0.6l0.6,1.1H794l-0.6-1.1h-0.6V130.2L792.9,130.2z
	 M792.9,128.5L792.9,128.5c0.6,0,0.6,0,0.6,0s0,0,0-0.6l0,0h-0.6l0,0V128.5L792.9,128.5z"/>
<path class="st7" d="M649.2,27.5c-3.9,3.4-7.3,7.3-10.7,11.2h21.3c2.8,3.4,5.6,7.3,7.9,11.2h-37.6c-2.2,3.9-4.5,7.3-6.2,11.2h49.9
	c1.7,3.9,3.4,7.3,4.5,11.2h-58.4c-1.1,3.9-2.2,7.3-3.4,11.2h65.1c1.7,7.3,2.2,14.6,2.2,22.4c0,11.8-1.7,23-5.6,33.7h-58.4
	c1.1,3.9,2.8,7.3,4.5,11.2h49.9c-1.7,3.9-3.9,7.9-6.2,11.2h-37.6c2.2,3.9,5.1,7.9,7.9,11.2h21.3c-3.4,3.9-6.7,7.9-10.7,11.2
	c19.1,16.8,43.8,27.5,71.3,27.5c1.7,0,3.4,0,5.1,0c32.5-23.6,53.9-62.3,53.9-105.5S758.1,24.7,725.5,1.1c-1.7,0-3.4,0-5.1,0
	C693,0,668.3,10.7,649.2,27.5z"/>
<polygon class="st6" points="565.1,132.4 551.6,132.4 559.4,91.5 541.5,132.4 529.7,132.4 527.5,91.5 519.6,132.4 507.8,132.4 
	517.9,78.6 538.7,78.6 539.8,112.2 554.4,78.6 575.7,78.6 "/>
<g>
	<path class="st8" d="M552.1,108.9l7.9-17.4l-6.2,32.5c0.6,2.8,1.1,6.2,2.2,9h9l10.1-53.9h-19.6c-2.2,8.4-3.9,18-3.9,27.5
		C552.1,107.2,552.1,107.7,552.1,108.9z"/>
	<path class="st8" d="M712.1,131.9c-3.9,1.1-6.2,1.7-9.5,1.7c-6.7,0-10.1-3.4-10.1-9.5c0-1.1,0-2.2,0.6-3.9l0.6-4.5l0.6-3.4
		l6.2-33.1h12.9l-1.7,10.1h6.7l-1.7,10.1h-6.7l-3.4,18c0,0.6-0.6,1.7-0.6,1.7c0,2.2,1.7,3.4,4.5,3.4c1.7,0,2.8,0,3.4-0.6
		L712.1,131.9L712.1,131.9z"/>
	<path class="st8" d="M750.8,89.2c-1.1-0.6-1.1-0.6-1.7-0.6s-1.1,0-1.1-0.6c-0.6,0-0.6,0-1.7,0c-4.5,0-7.3,1.7-11.2,7.3l1.1-6.7
		h-11.8l-7.9,43.8H730c4.5-26.9,6.7-31.4,12.9-31.4c0.6,0,1.1,0,1.7,0l1.7,0.6L750.8,89.2L750.8,89.2z"/>
	<path class="st8" d="M659.9,102.7c0,5.6,3.4,9.5,10.1,11.8c5.6,2.2,6.2,2.8,6.2,5.1c0,2.8-2.2,3.9-7.9,3.9c-3.9,0-7.9-0.6-11.8-1.7
		l-1.7,10.1h0.6l2.2,0.6c0.6,0,2.2,0,3.4,0c3.4,0.6,5.6,0.6,7.3,0.6c14,0,20.8-4.5,20.8-14.6c0-6.2-2.8-9.5-9.5-12.3
		c-5.6-2.2-6.2-2.8-6.2-4.5c0-2.2,2.2-3.4,6.7-3.4c2.2,0,6.2,0,9.5,0.6l1.7-10.1c-3.4-0.6-8.4-0.6-11.8-0.6
		C664.9,88.1,659.9,94.8,659.9,102.7L659.9,102.7z"/>
	<path class="st8" d="M607.7,132.4H597v-4.5c-3.4,3.4-7.9,5.1-14,5.1c-7.3,0-11.8-5.1-11.8-11.8c0-10.7,8.4-16.8,23-16.8
		c1.7,0,3.4,0,5.6,0c0.6-1.7,0.6-2.2,0.6-2.8c0-2.8-2.2-3.9-8.4-3.9c-3.9,0-7.9,0.6-10.7,1.1l-1.7,0.6h-1.1l1.7-9.5
		c6.7-1.7,10.7-2.2,15.7-2.2c11.2,0,17.4,4.5,17.4,12.9c0,2.2,0,3.9-1.1,9l-2.8,15.7l-0.6,2.8l-0.6,2.2v1.7L607.7,132.4L607.7,132.4
		z M598.2,112.8c-1.7,0-2.2,0-2.8,0c-7.3,0-11.2,2.2-11.2,6.7c0,2.8,1.7,4.5,4.5,4.5C594.2,124,598.2,119.5,598.2,112.8L598.2,112.8
		z"/>
	<path class="st8" d="M650.9,131.3c-4.5,1.1-9,1.7-13.5,1.7c-14.6,0-22.4-6.7-22.4-19.6c0-15.2,9.5-25.8,23-25.8
		c10.7,0,17.4,6.2,17.4,15.7c0,3.4-0.6,6.2-1.7,10.7h-26.4c0,0.6,0,1.1,0,1.7c0,5.1,3.9,7.9,11.2,7.9c5.1,0,9-0.6,13.5-2.8
		L650.9,131.3L650.9,131.3z M644.2,105.5c0-0.6,0-1.7,0-2.2c0-3.4-2.2-5.6-6.2-5.6c-3.9,0-7.3,2.8-8.4,7.9H644.2L644.2,105.5z"/>
</g>
<g>
	<path class="st6" d="M791.8,112.8c-2.2,14.6-12.3,20.8-25.8,20.8c-14.6,0-20.8-9-20.8-20.2c0-15.2,10.1-25.8,25.8-25.8
		c13.5,0,20.8,9,20.8,19.6C791.8,110,791.8,110,791.8,112.8L791.8,112.8z M777.7,107.2c0-4.5-1.7-8.4-7.3-8.4
		c-6.7,0-10.7,7.9-10.7,15.2c0,5.6,2.8,9.5,7.3,9.5c2.8,0,9-3.9,10.1-10.7C777.7,110.6,777.7,108.9,777.7,107.2L777.7,107.2z"/>
	<path class="st6" d="M745.8,118.4c0.6-3.9,1.1-8.4,1.1-12.3c0-0.6,0-1.1,0-1.1c-0.6,2.8-1.1,5.6-1.1,9
		C745.2,115,745.2,116.7,745.8,118.4z"/>
</g>
<g id="g5">
	<path id="path7" class="st9" d="M1611.2,52.5L1611.2,52.5c-0.1,0.1-18,0-22.8,17.2c-4.4,15.7-16.8,59.1-17.1,60.3h-3.4
		c0,0-12.7-44.4-17.1-60.4c-4.8-17.2-22.8-17.1-22.8-17.1h-41V183h41v-77.5h1.7h1.7l23.9,77.5h28.5l23.9-77.4h3.4V183h41V52.5
		H1611.2z"/>
</g>
<g id="g9">
	<path id="path11" class="st9" d="M1761.1,52.5c0,0-12,1.1-17.7,13.7l-29.1,63.8h-3.4V52.5h-41V183h38.7l0,0c0,0,12.6-1.1,18.2-13.7
		l28.5-63.8h3.4V183h41V52.5H1761.1z"/>
</g>
<g id="g13">
	<path id="path15" class="st9" d="M1818.1,111.8V183h41v-41.6h44.4c19.4,0,35.8-12.4,41.9-29.6H1818.1z"/>
</g>
<g id="g17">
	
		<linearGradient id="path24_1_" gradientUnits="userSpaceOnUse" x1="1812.3213" y1="156.7217" x2="1948" y2="156.7217" gradientTransform="matrix(1 0 0 -1 0 236)">
		<stop  offset="0.3" style="stop-color:#00B4E6"/>
		<stop  offset="1" style="stop-color:#088CCB"/>
	</linearGradient>
	<path id="path24" class="st10" d="M1903.6,52.5h-91.2c4.6,24.8,23.2,44.8,47.3,51.3l0,0c5.5,1.5,11.2,2.3,17.2,2.3h70.3
		c0.6-3,0.9-6,0.9-9.1C1948,72.4,1928.1,52.5,1903.6,52.5z"/>
</g>
<g>
	<polygon class="st11" points="1097.2,177.9 1119.1,54.4 1153.4,54.4 1132.2,177.9 	"/>
	<polygon class="st12" points="1097.2,177.9 1125.3,54.4 1153.4,54.4 1132.2,177.9 	"/>
	<path class="st11" d="M1256.3,55.7c-6.9-2.7-17.8-5.5-31.6-5.5c-34.3,0-59,17.2-59,41.9c0,18.5,17.2,28.1,30.9,34.3
		s17.8,10.3,17.8,15.8c0,8.2-11,12.3-20.6,12.3c-13.7,0-21.3-2.1-32.9-6.9l-4.8-2.1l-4.8,28.1c8.2,3.4,23.3,6.9,39.1,6.9
		c36.4,0,60.4-17.2,60.4-43.2c0-14.4-8.9-25.4-29.5-34.3c-12.3-6.2-19.9-9.6-19.9-15.8c0-5.5,6.2-11,19.9-11
		c11.7,0,19.9,2.1,26.1,4.8l3.4,1.4L1256.3,55.7L1256.3,55.7z"/>
	<path class="st12" d="M1256.3,55.7c-6.9-2.7-17.8-5.5-31.6-5.5c-34.3,0-52.8,17.2-52.8,41.9c0,18.5,11,28.1,24.7,34.3
		s17.8,10.3,17.8,15.8c0,8.2-11,12.3-20.6,12.3c-13.7,0-21.3-2.1-32.9-6.9l-4.8-2.1l-4.8,28.1c8.2,3.4,23.3,6.9,39.1,6.9
		c36.4,0,60.4-17.2,60.4-43.2c0-14.4-8.9-25.4-29.5-34.3c-12.3-6.2-19.9-9.6-19.9-15.8c0-5.5,6.2-11,19.9-11
		c11.7,0,19.9,2.1,26.1,4.8l3.4,1.4L1256.3,55.7L1256.3,55.7z"/>
	<path class="st11" d="M1315.3,54.4c-8.2,0-14.4,0.7-17.8,8.9l-51.5,114.6h37l6.9-20.6h43.9l4.1,20.6h32.9l-28.8-123.5H1315.3z
		 M1299.6,136.7c2.1-6.2,13.7-36.4,13.7-36.4s2.7-7.5,4.8-12.3l2.1,11.7c0,0,6.9,30.9,8.2,37.7h-28.8V136.7z"/>
	<path class="st12" d="M1323.6,54.4c-8.2,0-14.4,0.7-17.8,8.9l-59.7,114.6h37l6.9-20.6h43.9l4.1,20.6h32.9l-28.8-123.5H1323.6z
		 M1299.6,136.7c2.7-6.9,13.7-36.4,13.7-36.4s2.7-7.5,4.8-12.3l2.1,11.7c0,0,6.9,30.9,8.2,37.7h-28.8V136.7z"/>
	<path class="st11" d="M1034,140.8l-3.4-17.8c-6.2-20.6-26.1-43.2-48-54.2l30.9,109.8h37L1106.1,55h-37L1034,140.8z"/>
	<path class="st12" d="M1034,140.8l-3.4-17.8c-6.2-20.6-26.1-43.2-48-54.2l30.9,109.8h37L1106.1,55h-30.2L1034,140.8z"/>
	<path class="st13" d="M938.7,54.4l6.2,1.4c43.9,10.3,74.1,36.4,85.8,67.2l-12.3-58.3c-2.1-8.2-8.2-10.3-15.8-10.3H938.7z"/>
	<path class="st14" d="M938.7,54.4L938.7,54.4c43.9,10.3,80.3,37,91.9,67.9L1019,73.6c-2.1-8.2-8.9-13-16.5-13L938.7,54.4z"/>
	<path class="st15" d="M938.7,54.4L938.7,54.4c43.9,10.3,80.3,37,91.9,67.9l-8.2-26.8c-2.1-8.2-4.8-16.5-14.4-19.9L938.7,54.4z"/>
	<g>
		<path class="st16" d="M1068.4,136.7l-23.3-23.3l-11,26.1l-2.7-17.2c-6.2-20.6-26.1-43.2-48-54.2l30.9,109.8h37L1068.4,136.7z"/>
		<polygon class="st16" points="1132.2,177.9 1102.7,147.7 1097.2,177.9 		"/>
		<path class="st16" d="M1211.1,135.3L1211.1,135.3c2.7,2.7,4.1,4.8,3.4,7.5c0,8.2-11,12.3-20.6,12.3c-13.7,0-21.3-2.1-32.9-6.9
			l-4.8-2.1l-4.8,28.1c8.2,3.4,23.3,6.9,39.1,6.9c22,0,39.8-6.2,50.1-17.2L1211.1,135.3z"/>
		<path class="st16" d="M1250.9,177.9h32.2l6.9-20.6h43.9l4.1,20.6h32.9l-11.7-50.1L1318.1,88l2.1,11c0,0,6.9,30.9,8.2,37.7h-28.8
			c2.7-6.9,13.7-36.4,13.7-36.4s2.7-7.5,4.8-12.3"/>
	</g>
</g>
<path class="st17" d="M366.2,105.7c0,58.2-47,105.7-105.7,105.7c-58.2,0-105.7-47.6-105.7-105.7l0,0C154.7,47.6,201.7,0,259.9,0
	C319.2,0,366.2,47.6,366.2,105.7L366.2,105.7z"/>
<path class="st14" d="M260.4,0c58.2,0,105.7,47.6,105.7,105.7l0,0c0,58.2-47,105.7-105.7,105.7c-58.2,0-105.7-47.6-105.7-105.7"/>
<path class="st18" d="M260.4,0c58.2,0,105.7,47.6,105.7,105.7l0,0c0,58.2-47,105.7-105.7,105.7"/>
<path class="st19" d="M118.3,0C60.7,0.6,13.7,47.6,13.7,105.7s47,105.7,105.7,105.7c27.4,0,52-10.6,71.1-27.4l0,0l0,0
	c3.9-3.4,7.3-7.3,10.6-11.2h-21.8c-2.8-3.4-5.6-7.3-7.8-10.6h37.5c2.2-3.4,4.5-7.3,6.2-11.2h-49.8c-1.7-3.4-3.4-7.3-4.5-11.2H219
	c3.4-10.6,5.6-21.8,5.6-33.6c0-7.8-1.1-15.1-2.2-22.4h-64.9c0.6-3.9,1.7-7.3,2.8-11.2h58.2c-1.1-3.9-2.8-7.8-4.5-11.2h-49.2
	c1.7-3.9,3.9-7.3,6.2-11.2h37.5c-2.2-3.9-5-7.8-8.4-11.2h-20.7c3.4-3.9,6.7-7.3,10.6-10.6c-18.5-17.3-43.6-27.4-71.1-27.4
	C118.9,0,118.9,0,118.3,0z"/>
<path class="st20" d="M13.7,105.7c0,58.2,47,105.7,105.7,105.7c27.4,0,52-10.6,71.1-27.4l0,0l0,0c3.9-3.4,7.3-7.3,10.6-11.2h-21.8
	c-2.8-3.4-5.6-7.3-7.8-10.6h37.5c2.2-3.4,4.5-7.3,6.2-11.2h-49.8c-1.7-3.4-3.4-7.3-4.5-11.2H219c3.4-10.6,5.6-21.8,5.6-33.6
	c0-7.8-1.1-15.1-2.2-22.4h-64.9c0.6-3.9,1.7-7.3,2.8-11.2h58.2c-1.1-3.9-2.8-7.8-4.5-11.2h-49.2c1.7-3.9,3.9-7.3,6.2-11.2h37.5
	c-2.2-3.9-5-7.8-8.4-11.2h-20.7c3.4-3.9,6.7-7.3,10.6-10.6c-18.5-17.3-43.6-27.4-71.1-27.4h-0.6"/>
<path class="st21" d="M119.4,211.5c27.4,0,52-10.6,71.1-27.4l0,0l0,0c3.9-3.4,7.3-7.3,10.6-11.2h-21.8c-2.8-3.4-5.6-7.3-7.8-10.6
	h37.5c2.2-3.4,4.5-7.3,6.2-11.2h-49.8c-1.7-3.4-3.4-7.3-4.5-11.2H219c3.4-10.6,5.6-21.8,5.6-33.6c0-7.8-1.1-15.1-2.2-22.4h-64.9
	c0.6-3.9,1.7-7.3,2.8-11.2h58.2c-1.1-3.9-2.8-7.8-4.5-11.2h-49.2c1.7-3.9,3.9-7.3,6.2-11.2h37.5c-2.2-3.9-5-7.8-8.4-11.2h-20.7
	c3.4-3.9,6.7-7.3,10.6-10.6c-18.5-17.3-43.6-27.4-71.1-27.4h-0.6"/>
<g>
	<path class="st6" d="M156.9,132.6l1.7-9.5c-0.6,0-1.7,0.6-2.8,0.6c-3.9,0-4.5-2.2-3.9-3.4l3.4-19.6h6.2l1.7-10.6h-5.6l1.1-6.7
		h-11.2c0,0-6.7,36.9-6.7,41.4c0,6.7,3.9,9.5,9,9.5C153,134.3,155.8,133.2,156.9,132.6z"/>
	<path class="st6" d="M160.8,114.7c0,15.7,10.6,19.6,19.6,19.6c8.4,0,11.7-1.7,11.7-1.7l2.2-10.6c0,0-6.2,2.8-11.7,2.8
		c-12.3,0-10.1-9-10.1-9h22.9c0,0,1.7-7.3,1.7-10.1c0-7.3-3.9-16.2-16.2-16.2C169.2,88.4,160.8,100.7,160.8,114.7z M180.4,98.5
		c6.2,0,5,7.3,5,7.8h-12.3C173.1,105.7,174.3,98.5,180.4,98.5z"/>
	<path class="st6" d="M251.5,132.6l2.2-12.3c0,0-5.6,2.8-9.5,2.8c-7.8,0-11.2-6.2-11.2-12.9c0-13.4,6.7-20.7,14.5-20.7
		c5.6,0,10.1,3.4,10.1,3.4l1.7-11.7c0,0-6.7-2.8-12.9-2.8c-12.9,0-25.7,11.2-25.7,32.4c0,14,6.7,23.5,20.1,23.5
		C245.3,134.3,251.5,132.6,251.5,132.6z"/>
	<path class="st6" d="M95.4,88.4c-7.8,0-13.4,2.2-13.4,2.2l-1.7,9.5c0,0,5-2.2,12.3-2.2c3.9,0,7.3,0.6,7.3,3.9
		c0,2.2-0.6,2.8-0.6,2.8s-3.4,0-5,0c-9.5,0-20.1,3.9-20.1,16.8c0,10.1,6.7,12.3,10.6,12.3c7.8,0,11.2-5,11.7-5l-0.6,4.5H106
		l4.5-30.8C110.5,89,99.3,88.4,95.4,88.4z M97.6,113.6c0,1.7-1.1,10.6-7.8,10.6c-3.4,0-4.5-2.8-4.5-4.5c0-2.8,1.7-6.7,10.1-6.7
		C97.1,113.6,97.6,113.6,97.6,113.6z"/>
	<path class="st6" d="M121.1,133.7c2.8,0,16.8,0.6,16.8-14.5c0-14-13.4-11.2-13.4-16.8c0-2.8,2.2-3.9,6.2-3.9c1.7,0,7.8,0.6,7.8,0.6
		l1.7-10.1c0,0-3.9-1.1-10.6-1.1c-8.4,0-16.8,3.4-16.8,14.5c0,12.9,14,11.7,14,16.8c0,3.4-3.9,3.9-6.7,3.9c-5,0-10.1-1.7-10.1-1.7
		l-1.7,10.1C108.8,132.6,111.6,133.7,121.1,133.7z"/>
	<path class="st6" d="M344.3,79.4l-2.2,15.1c0,0-4.5-5.6-10.6-5.6c-10.1,0-19,12.3-19,26.9c0,9,4.5,18.5,14,18.5
		c6.7,0,10.6-4.5,10.6-4.5l-0.6,3.9h11.2l8.4-53.7L344.3,79.4z M339.3,109.1c0,6.2-2.8,14-9,14c-3.9,0-6.2-3.4-6.2-9
		c0-9,3.9-14.5,9-14.5C337.1,99.6,339.3,102.4,339.3,109.1z"/>
	<path class="st6" d="M34.4,133.2l6.7-40.3l1.1,40.3h7.8l14.5-40.3l-6.2,40.3h11.7l9-53.7H60.7l-11.2,33l-0.6-33H32.7l-9,53.7H34.4z
		"/>
	<path class="st6" d="M207.8,133.2c3.4-18.5,3.9-33.6,11.7-30.8c1.1-7.3,2.8-10.1,3.9-12.9c0,0-0.6,0-2.2,0c-5,0-9,6.7-9,6.7
		l1.1-6.2h-10.6l-7.3,43.6h12.3V133.2z"/>
	<path class="st6" d="M277.2,88.4c-7.8,0-13.4,2.2-13.4,2.2l-1.7,9.5c0,0,5-2.2,12.3-2.2c3.9,0,7.3,0.6,7.3,3.9
		c0,2.2-0.6,2.8-0.6,2.8s-3.4,0-5,0c-9.5,0-20.1,3.9-20.1,16.8c0,10.1,6.7,12.3,10.6,12.3c7.8,0,11.2-5,11.7-5l-0.6,4.5h10.1
		l4.5-30.8C292.9,89,281.1,88.4,277.2,88.4z M280,113.6c0,1.7-1.1,10.6-7.8,10.6c-3.4,0-4.5-2.8-4.5-4.5c0-2.8,1.7-6.7,10.1-6.7
		C279.4,113.6,279.4,113.6,280,113.6z"/>
	<path class="st6" d="M301.8,133.2c3.4-18.5,3.9-33.6,11.7-30.8c1.1-7.3,2.8-10.1,3.9-12.9c0,0-0.6,0-2.2,0c-5,0-9,6.7-9,6.7
		l1.1-6.2h-10.6l-7.3,43.6h12.3V133.2z"/>
</g>
<g>
	<path class="st8" d="M139.6,124.8c0,6.7,3.9,9.5,9,9.5c3.9,0,7.3-1.1,8.4-1.7l1.7-9.5c-0.6,0-1.7,0.6-2.8,0.6
		c-3.9,0-4.5-2.2-3.9-3.4l3.4-19.6h6.2l1.7-10.6h-5.6l1.1-6.7"/>
	<path class="st8" d="M166.4,114.7c0,15.7,5,19.6,14,19.6c8.4,0,11.7-1.7,11.7-1.7l2.2-10.6c0,0-6.2,2.8-11.7,2.8
		c-12.3,0-10.1-9-10.1-9h22.9c0,0,1.7-7.3,1.7-10.1c0-7.3-3.9-16.2-16.2-16.2C169.2,88.4,166.4,100.7,166.4,114.7z M180.4,98.5
		c6.2,0,7.3,7.3,7.3,7.8h-14.5C173.1,105.7,174.3,98.5,180.4,98.5z"/>
	<path class="st8" d="M251.5,132.6l2.2-12.3c0,0-5.6,2.8-9.5,2.8c-7.8,0-11.2-6.2-11.2-12.9c0-13.4,6.7-20.7,14.5-20.7
		c5.6,0,10.1,3.4,10.1,3.4l1.7-11.7c0,0-6.7-2.8-12.9-2.8c-12.9,0-20.1,11.2-20.1,32.4c0,14,1.1,23.5,14.5,23.5
		C245.3,134.3,251.5,132.6,251.5,132.6z"/>
	<path class="st8" d="M80.3,100.7c0,0,5-2.2,12.3-2.2c3.9,0,7.3,0.6,7.3,3.9c0,2.2-0.6,2.8-0.6,2.8s-3.4,0-5,0
		c-9.5,0-20.1,3.9-20.1,16.8c0,10.1,6.7,12.3,10.6,12.3c7.8,0,11.2-5,11.7-5l-0.6,4.5H106l4.5-30.8c0-12.9-11.2-13.4-15.7-13.4
		 M103.2,113.6c0,1.7-6.7,10.6-13.4,10.6c-3.4,0-4.5-2.8-4.5-4.5c0-2.8,1.7-6.7,10.1-6.7C97.1,113.6,103.2,113.6,103.2,113.6z"/>
	<path class="st8" d="M108.8,132.6c0,0,3.4,1.1,12.9,1.1c2.8,0,16.8,0.6,16.8-14.5c0-14-13.4-11.2-13.4-16.8c0-2.8,2.2-3.9,6.2-3.9
		c1.7,0,7.8,0.6,7.8,0.6l1.7-10.1c0,0-3.9-1.1-10.6-1.1c-8.4,0-11.2,3.4-11.2,14.5c0,12.9,8.4,11.7,8.4,16.8c0,3.4-3.9,3.9-6.7,3.9"
		/>
	<path class="st8" d="M342.1,94.5c0,0-4.5-5.6-10.6-5.6c-10.1,0-13.4,12.3-13.4,26.9c0,9-1.1,18.5,8.4,18.5c6.7,0,10.6-4.5,10.6-4.5
		l-0.6,3.9h11.2l8.4-53.7 M341.5,109.1c0,6.2-5,14-11.2,14c-3.9,0-6.2-3.4-6.2-9c0-9,3.9-14.5,9-14.5
		C337.1,99.6,341.5,102.4,341.5,109.1z"/>
	<path class="st8" d="M34.4,133.2l6.7-40.3l1.1,40.3h7.8l14.5-40.3l-6.2,40.3h11.7l9-53.7h-14l-15.7,33l-0.6-33h-6.2l-19,53.7H34.4z
		"/>
	<path class="st8" d="M196.1,133.2h11.7c3.4-18.5,3.9-33.6,11.7-30.8c1.1-7.3,2.8-10.1,3.9-12.9c0,0-0.6,0-2.2,0c-5,0-9,6.7-9,6.7
		l1.1-6.2"/>
	<path class="st8" d="M262.1,100.7c0,0,5-2.2,12.3-2.2c3.9,0,7.3,0.6,7.3,3.9c0,2.2-0.6,2.8-0.6,2.8s-3.4,0-5,0
		c-9.5,0-20.1,3.9-20.1,16.8c0,10.1,6.7,12.3,10.6,12.3c7.8,0,11.2-5,11.7-5l-0.6,4.5h10.1l4.5-30.8c0-12.9-11.2-13.4-15.7-13.4
		 M285,113.6c0,1.7-6.7,10.6-13.4,10.6c-3.4,0-4.5-2.8-4.5-4.5c0-2.8,1.7-6.7,10.1-6.7C279.4,113.6,285,113.6,285,113.6z"/>
	<path class="st8" d="M290.1,133.2h11.7c3.4-18.5,3.9-33.6,11.7-30.8c1.1-7.3,2.8-10.1,3.9-12.9c0,0-0.6,0-2.2,0c-5,0-9,6.7-9,6.7
		l1.1-6.2"/>
</g>
</svg>
