<svg xmlns="http://www.w3.org/2000/svg" width="281" height="27" xmlns:xlink="http://www.w3.org/1999/xlink"><defs><path id="a" d="M.034.001c.364 2.035 2.098 3.577 4.185 3.577h4.66c.038-.192.058-.392.058-.596 0-1.646-1.3-2.98-2.903-2.98"/></defs><g fill="none" fill-rule="evenodd"><path fill="#000" fill-opacity=".3" d="M135.719 12.082h.108c.04 0 .087.002.12-.018.034-.022.048-.064.048-.102 0-.033-.019-.073-.048-.089-.028-.02-.087-.015-.122-.015h-.106v.224zm0 .496h-.196v-.882h.354c.073 0 .153.005.216.049.068.05.106.133.106.221 0 .098-.055.19-.144.222l.153.39h-.217l-.13-.345h-.142v.345zm.13.326c.4 0 .728-.344.728-.765 0-.419-.327-.759-.729-.759-.4 0-.728.34-.728.76s.329.764.728.764zm-.955-.765c0-.553.43-1 .954-1 .528 0 .953.447.953 1 0 .554-.425 1.002-.953 1.002-.525 0-.954-.448-.954-1.002zm-13.647-6.655l-.26 1.697c-.568-.301-.985-.42-1.43-.42-1.19 0-2.03 1.207-2.03 2.928 0 1.19.564 1.906 1.492 1.906.394 0 .827-.127 1.357-.403l-.278 1.785c-.587.169-.969.23-1.412.23-1.722 0-2.793-1.297-2.793-3.378 0-2.798 1.48-4.753 3.597-4.753.273 0 .517.027.716.085l.658.172c.196.078.24.089.383.151zm-5.3 1.163a.871.871 0 0 0-.163-.016c-.526 0-.823.278-1.312 1.036l.142-.967h-1.446l-.98 6.362h1.604c.573-3.889.72-4.56 1.49-4.56a.77.77 0 0 1 .116.007c.142-.767.336-1.33.604-1.845l-.054-.017zm-9.56 6.337c-.434.144-.777.21-1.145.21-.815 0-1.26-.496-1.26-1.4 0-.177.013-.368.045-.57l.1-.62.072-.507.693-4.341h1.588l-.183.944h.818l-.225 1.546h-.814l-.422 2.655c-.015.118-.027.204-.027.264 0 .326.166.472.544.472.184 0 .323-.02.43-.06l-.214 1.407zm-6.294-4.272c0 .802.37 1.358 1.21 1.773.643.32.745.412.745.702 0 .394-.285.578-.914.578-.474 0-.917-.079-1.427-.255l-.221 1.467.072.016.293.062c.094.02.233.038.416.058.38.035.673.052.88.052 1.675 0 2.45-.675 2.45-2.124 0-.87-.324-1.385-1.122-1.771-.666-.317-.741-.391-.741-.687 0-.345.264-.522.777-.522.313 0 .737.037 1.142.094l.228-1.469a9.954 9.954 0 0 0-1.401-.125c-1.778 0-2.394.976-2.387 2.15zm31.517 2.852c.746 0 1.267-.884 1.267-2.143 0-.809-.297-1.25-.849-1.25-.723 0-1.237.888-1.237 2.14 0 .833.276 1.253.819 1.253zm2.357 1.498h-1.511l.079-.623c-.44.492-.892.707-1.476.707-1.168 0-1.933-1.05-1.933-2.64 0-2.117 1.19-3.903 2.602-3.903.62 0 1.09.267 1.531.87l.348-2.235h1.574l-1.214 7.824zM110.549 9.14c.01-.133.011-.242.011-.322 0-.52-.28-.824-.755-.824-.507 0-.87.406-1.018 1.142l1.762.004zm.896 3.788a5.318 5.318 0 0 1-1.64.256c-1.781 0-2.711-.978-2.711-2.848 0-2.186 1.183-3.796 2.792-3.796 1.312 0 2.155.902 2.155 2.315 0 .469-.057.925-.2 1.57h-3.174c-.014.097-.016.14-.016.198 0 .743.475 1.118 1.404 1.118.57 0 1.083-.124 1.657-.405l-.267 1.592zm-17.763.134h-1.596L93 7.05l-2.042 6.012h-1.093l-.132-5.976-.963 5.976h-1.494l1.247-7.824h2.299l.063 4.841 1.552-4.84h2.482l-1.237 7.823zm5.272 0h-1.323l.03-.66c-.403.526-.942.77-1.674.77-.868 0-1.46-.709-1.46-1.733 0-1.553 1.035-2.455 2.806-2.455.18 0 .412.014.65.047.05-.21.063-.301.063-.412 0-.42-.278-.58-1.026-.58-.452 0-.97.069-1.328.182l-.222.064-.14.04.22-1.426c.797-.247 1.322-.342 1.914-.342 1.372 0 2.1.646 2.1 1.865 0 .317-.024.552-.133 1.263l-.334 2.254-.054.407-.041.324-.028.221-.02.17zm-1.161-2.834a2.752 2.752 0 0 0-.358-.027c-.905 0-1.363.328-1.363.97 0 .396.225.65.574.65.65 0 1.12-.65 1.147-1.593zm27.368 2.834h-1.325l.032-.66c-.404.526-.943.77-1.673.77-.868 0-1.463-.709-1.463-1.733 0-1.553 1.034-2.455 2.808-2.455.18 0 .413.014.65.047a1.7 1.7 0 0 0 .063-.412c0-.42-.278-.58-1.026-.58-.454 0-.971.069-1.326.182l-.227.064-.138.04.222-1.426c.798-.247 1.322-.342 1.91-.342 1.374 0 2.101.646 2.101 1.865 0 .317-.027.552-.131 1.263l-.336 2.254-.05.407-.045.324-.028.221-.018.17zm-1.162-2.834a2.727 2.727 0 0 0-.356-.027c-.908 0-1.367.328-1.367.97 0 .396.227.65.576.65.653 0 1.118-.65 1.147-1.593zm5.623-3.58a.808.808 0 0 0-.161-.017c-.525 0-.824.278-1.315 1.036l.142-.967h-1.444l-.977 6.362h1.6c.573-3.889.725-4.56 1.489-4.56.05 0 .046-.005.111.007.145-.767.34-1.33.609-1.845l-.054-.017zm-5.13 12.61c0-1.603-.794-2.85-2.286-2.85-1.718 0-2.83 1.517-2.83 3.75 0 1.6.657 2.907 2.283 2.907 1.641 0 2.832-1.159 2.832-3.807zm-1.571-.026c0 1.442-.448 2.292-1.153 2.292-.515.015-.827-.557-.827-1.414 0-1.012.456-2.16 1.188-2.16.588 0 .792.622.792 1.282zm-3.032-3.95l-.245 1.695c-.53-.299-.917-.423-1.334-.423-1.116 0-1.895 1.211-1.895 2.933 0 1.188.522 1.907 1.39 1.907.372 0 .777-.126 1.27-.403l-.259 1.784c-.551.17-.912.229-1.322.229-1.608 0-2.609-1.297-2.609-3.378 0-2.8 1.382-4.754 3.362-4.754.256 0 .482.033.67.084l.61.174c.19.074.228.087.362.152zm-9.875 1.165a.584.584 0 0 0-.153-.018c-.484 0-.768.28-1.222 1.035l.132-.965h-1.35l-.912 6.363h1.492c.536-3.893.678-4.563 1.393-4.563.042 0 .046 0 .109.008.134-.77.315-1.334.566-1.85l-.055-.01zm17.273 4.85c.703 0 1.187-.884 1.187-2.144 0-.811-.277-1.246-.79-1.246-.678 0-1.16.884-1.16 2.14 0 .829.259 1.25.763 1.25zm2.205 1.496h-1.41l.073-.62c-.41.49-.836.706-1.381.706-1.087 0-1.804-1.052-1.804-2.643 0-2.111 1.113-3.903 2.43-3.903.58 0 1.021.274 1.429.876l.329-2.237h1.467l-1.133 7.821zm-34.294-3.812c.007-.134.011-.24.011-.323 0-.518-.262-.822-.705-.822-.476 0-.814.408-.951 1.139l1.645.006zm.834 3.786a4.581 4.581 0 0 1-1.528.259c-1.665 0-2.534-.98-2.534-2.85 0-2.182 1.105-3.794 2.606-3.794 1.23 0 2.013.901 2.013 2.315 0 .467-.053.925-.18 1.57h-2.973a2.028 2.028 0 0 0-.012.198c0 .74.445 1.115 1.31 1.115.533 0 1.014-.124 1.55-.403l-.252 1.59zm16.9-3.786c.01-.134.015-.24.015-.323 0-.518-.265-.822-.706-.822-.476 0-.814.408-.952 1.139l1.642.006zm.837 3.786a4.598 4.598 0 0 1-1.528.259c-1.668 0-2.536-.98-2.536-2.85 0-2.182 1.107-3.794 2.606-3.794 1.23 0 2.016.901 2.016 2.315 0 .467-.056.925-.188 1.57h-2.966c-.009.095-.014.142-.014.198 0 .74.444 1.115 1.31 1.115.532 0 1.015-.124 1.549-.403l-.249 1.59zm19.972-3.786c.007-.134.012-.24.012-.323 0-.518-.261-.822-.705-.822-.477 0-.814.408-.952 1.139l1.645.006zm.838 3.786a4.632 4.632 0 0 1-1.531.259c-1.666 0-2.537-.98-2.537-2.85 0-2.182 1.11-3.794 2.609-3.794 1.229 0 2.011.901 2.011 2.315 0 .467-.05.925-.183 1.57h-2.968c-.01.095-.013.142-.013.198 0 .74.446 1.115 1.31 1.115.534 0 1.015-.124 1.55-.403l-.248 1.59zm-42.961-6.032a2.165 2.165 0 0 0-1.246-.366c-.602 0-1.088.125-1.088.765 0 1.13 2.199.709 2.199 3.129 0 2.204-1.452 2.776-2.764 2.776-.584 0-1.255-.193-1.75-.412l.356-1.62c.298.27.901.456 1.394.456.47 0 1.206-.128 1.206-.946 0-1.28-2.197-.804-2.197-3.053 0-2.056 1.283-2.671 2.521-2.671.697 0 1.352.102 1.736.356l-.367 1.586zm8.78 6.03c-.307.147-.718.244-1.324.244-1.304 0-2.112-1.3-2.112-2.882 0-2.072 1.17-3.724 2.89-3.724.375 0 .948.162 1.4.423l-.33 1.52c-.32-.21-.652-.343-.996-.343-.797 0-1.366.729-1.366 2.035 0 .752.413 1.37 1.065 1.37.389 0 .662-.082.996-.277l-.223 1.633zm5.578-1.594c-.077.547-.148 1.08-.19 1.65h-1.436l.121-1.028h-.014c-.45.699-.915 1.175-1.727 1.175-.902 0-1.39-.947-1.39-2.182 0-.426.026-.667.122-1.333l.406-2.944h1.597l-.428 2.953c-.043.318-.104.632-.104.96 0 .373.17.75.6.726.655 0 1.042-.798 1.151-1.732l.441-2.907h1.547l-.696 4.662zm30.092 1.573h-.242v-1.055h-.349v-.226h.94v.226h-.35v1.055zm1.601 0h-.225v-1.07h-.003l-.216 1.07h-.236l-.211-1.07h-.004v1.07h-.225v-1.28h.352l.21 1.009h.003l.206-1.01h.35v1.28zm55.367-5.19c-.062.498-.144.976-.245 1.434-.427-.138-.92-.36-1.614-.314-.415.028-.905.187-.912.56-.007.413.673.659 1.053.84.682.326 1.415.76 1.473 1.645a2.081 2.081 0 0 1-.632 1.61c-.956.902-3.077.997-4.525.42.09-.482.172-.972.245-1.47.562.237 1.331.559 2.176.455.384-.047.855-.271.841-.665-.017-.48-.915-.766-1.368-1.015-.526-.29-1.125-.77-1.158-1.505a1.92 1.92 0 0 1 .422-1.26c.747-.928 2.668-1.257 4.244-.735zM175.845 8.18h1.934l-1.191 7.488h-1.934l1.19-7.488zm-6.701 0h2.96c1.885 0 2.374 1.082 2.168 2.375-.171 1.08-.949 1.8-1.959 2.057l1.876 3.056h-2.428l-1.407-2.94-.467 2.94h-1.934l1.19-7.489zm1.697 1.489l-.299 1.878h.56c.543 0 1.057-.422 1.142-.94.086-.516-.289-.938-.833-.938h-.57zm13.836-1.49h1.934l-1.19 7.49h-1.935l1.191-7.49zm7.65 0l-.26 1.629h-2.312l-.203 1.28h2.198l-.259 1.628h-2.198l-.21 1.324h2.312l-.26 1.628h-4.246l1.19-7.489h4.247zm-28.58 0h4.247l-.26 1.629h-2.311l-.204 1.28h2.198l-.259 1.628h-2.198l-.21 1.324h2.312l-.26 1.628h-4.245l1.19-7.489zm15.496 0h4.294l-.259 1.629h-2.36l-.207 1.28h2.148l-.26 1.628h-2.146l-.47 2.952h-1.93l1.19-7.489zm14.222 0h2.52c3.002 0 3.687 2.267 3.452 3.747-.337 2.114-2.226 3.742-4.643 3.742h-2.52l1.19-7.489zm1.675 1.629h.399c1.479 0 2.056 1.04 1.897 2.044-.215 1.346-1.185 2.188-2.452 2.188h-.517l.673-4.232zm-40.46-2.65h3.578l.425 5.442c2.368-4.089 4.773-8.024 7.197-11.888h1.166c-2.565 4.937-5.098 9.907-7.552 14.956h-2.626l-.64-6c-.16-1.489-.46-2.12-1.548-2.281v-.228zm15.458 13.874c.463 0 .777.423.702.944-.075.521-.51.944-.973.944-.462 0-.777-.423-.702-.944.075-.521.51-.944.973-.944zm-1.562-3.603h1.251l-.421 2.952c.357-.345.795-.557 1.283-.557 1.005 0 1.663.965 1.486 2.157-.178 1.191-1.125 2.158-2.13 2.158a1.23 1.23 0 0 1-1.09-.596l-.068.468h-1.252l.94-6.582zm3.706 2.495h1.502l.672 2.092 1.304-2.092h1.452l-3.81 6.106h-1.451l1.607-2.575-1.276-3.531zm12.394 4.084l1.1-6.58h1.8l-1.1 6.58h-1.8zm-1.504-6.594c-.621 1.457-1.15 3.006-1.79 4.445l-.187-.864-.002-.01.031.154a4.057 4.057 0 0 0-.701-1.307 5.183 5.183 0 0 0-.27-.318 6.58 6.58 0 0 0-1.522-1.211l1.6 5.691h1.929c.908-2.22 1.888-4.37 2.805-6.58h-1.893zm15.932 6.615h-1.649c-.107-.314-.136-.704-.245-1.015h-2.245l-.42 1.015h-1.895l2.455-5.635c.109-.247.304-.585.386-.735.125-.228.607-.245.813-.245h1.362l1.438 6.615zm-2.732-4.792l-.916 2.447h1.482l-.566-2.447zM156.035 4.065l3.05 1.29.265 3.39h.226l2.77-4.677v-.236h-6.311v.233zm23.74 13.35h-2.944v.143c1.694.33 3.833 1.748 4.393 3.58l-.631-3.064c-.087-.473-.417-.66-.819-.66zm-144.347 1.34l3.143-.985-.968-2.143a48.157 48.157 0 0 0-2.175 3.127zm-10.711 3.354L9.097 27 .5 3.712l30.942-1.73 4.307 9.537c-.257.276-.495.555-.71.824a54.692 54.692 0 0 0-2.62 3.573V9.682h-3.85v9.512c-.53-.44-1.076-.802-1.572-.963l-.003-1.377c-.498.184-.965.324-1.403.42a6.249 6.249 0 0 1-1.345.146 4.28 4.28 0 0 1-1.248-.175 2.967 2.967 0 0 1-1.012-.514 2.5 2.5 0 0 1-.688-.855 2.68 2.68 0 0 1-.254-1.196c0-.879.272-1.555.814-2.03.545-.472 1.248-.709 2.114-.709.535 0 1.04.071 1.51.21.47.141.898.317 1.276.53l.007-2.683c-.484-.174-.497-.193-1.105-.325-.606-.13-1.298-.152-2.045-.152-.966 0-1.854.124-2.658.37-.806.247-1.501.597-2.083 1.05a4.79 4.79 0 0 0-1.354 1.638 4.652 4.652 0 0 0-.48 2.116c0 .782.15 1.492.45 2.132.301.636.739 1.175 1.316 1.621.576.446 1.28.788 2.11 1.029.833.242 1.778.363 2.837.363.138 0 .274-.002.406-.006a2.046 2.046 0 0 0-.031.087c-.215.632-.107 1.285.302 1.84.07.094.167.212.287.348zm5.346-2.43h-.945c.208.196.41.398.603.598.103-.182.217-.382.342-.597zM28.838 8.135c.448.384 1.003.575 1.661.575.66 0 1.214-.191 1.662-.575.447-.383.671-.912.671-1.585 0-.687-.224-1.224-.671-1.606-.448-.384-1.003-.577-1.662-.577-.658 0-1.213.193-1.66.577-.45.382-.672.919-.672 1.606 0 .673.223 1.202.671 1.585zM14.85 10.53c-.955-.565-2.274-.848-3.952-.848H6.41v9.998h3.832v-3h.6c.814 0 1.556-.074 2.225-.224.671-.15 1.243-.374 1.719-.675a3.23 3.23 0 0 0 1.105-1.122c.266-.45.396-.968.396-1.558 0-1.148-.478-2.007-1.437-2.571zM45.2 8.077v3.986h.553c.471 0 .81-.053 1.01-.157.199-.105.356-.287.468-.547.114-.26.171-.683.171-1.267 0-.772-.128-1.302-.38-1.587-.253-.285-.674-.428-1.259-.428h-.564zm-2.263-1.651h3.361c.662 0 1.197.09 1.606.268.407.18.745.436 1.011.771.267.335.46.725.578 1.17.122.444.181.915.181 1.413 0 .78-.09 1.384-.266 1.813-.179.43-.426.79-.743 1.08a2.42 2.42 0 0 1-1.02.58 5.25 5.25 0 0 1-1.347.198h-3.361V6.426zm7.532 4.88l2.153-.134c.045.348.14.614.283.796.233.296.566.443.999.443.323 0 .573-.075.747-.226.176-.151.262-.326.262-.525 0-.19-.084-.359-.25-.508-.167-.15-.552-.29-1.159-.423-.992-.222-1.698-.517-2.122-.885a1.78 1.78 0 0 1-.64-1.409c0-.374.11-.728.329-1.062.216-.333.544-.595.982-.786.438-.19 1.04-.286 1.801-.286.937 0 1.651.173 2.141.52.49.347.783.898.878 1.654l-2.134.125c-.057-.329-.176-.567-.357-.717-.183-.149-.433-.224-.752-.224-.264 0-.461.056-.594.167a.51.51 0 0 0-.2.405c0 .117.054.221.164.314.107.096.36.186.759.269.99.212 1.698.427 2.127.644.428.217.74.487.932.809.195.321.293.681.293 1.08 0 .467-.129.898-.39 1.293-.26.395-.621.694-1.088.898-.466.204-1.053.306-1.762.306-1.247 0-2.108-.239-2.589-.716-.48-.478-.752-1.085-.813-1.822zm7.386 0l2.153-.134c.048.348.14.614.286.796.233.296.566.443 1 .443.32 0 .57-.075.744-.226.176-.151.264-.326.264-.525 0-.19-.083-.359-.25-.508-.167-.15-.554-.29-1.159-.423-.994-.222-1.7-.517-2.124-.885a1.778 1.778 0 0 1-.638-1.409 1.9 1.9 0 0 1 .326-1.062c.22-.333.547-.595.985-.786.438-.19 1.037-.286 1.801-.286.935 0 1.649.173 2.139.52.492.347.785.898.878 1.654l-2.134.125c-.057-.329-.176-.567-.357-.717-.18-.149-.433-.224-.752-.224-.262 0-.461.056-.595.167a.51.51 0 0 0-.2.405c0 .117.055.221.167.314.105.096.36.186.759.269.987.212 1.696.427 2.124.644.429.217.74.487.935.809.195.321.293.681.293 1.08 0 .467-.13.898-.39 1.293-.26.395-.623.694-1.09.898-.466.204-1.054.306-1.763.306-1.246 0-2.107-.239-2.588-.716-.478-.478-.75-1.085-.814-1.822zm-13.648 5.278l.552.167a1.013 1.013 0 0 1-.174.387.774.774 0 0 1-.3.235c-.116.053-.268.079-.451.079a1.31 1.31 0 0 1-.543-.096.854.854 0 0 1-.366-.34c-.102-.161-.152-.369-.152-.621 0-.337.09-.596.268-.777.181-.18.436-.271.764-.271.257 0 .46.052.607.156a.91.91 0 0 1 .328.477l-.557.124a.371.371 0 0 0-.19-.247.382.382 0 0 0-.174-.04.37.37 0 0 0-.328.173c-.057.085-.086.218-.086.4 0 .226.034.38.103.464a.356.356 0 0 0 .29.126c.121 0 .212-.034.273-.101a.632.632 0 0 0 .136-.295zm1.668-.18c0 .205.038.353.116.443.076.09.181.134.312.134.136 0 .24-.044.316-.132.074-.088.112-.245.112-.473 0-.192-.04-.332-.116-.42a.401.401 0 0 0-.317-.133.382.382 0 0 0-.307.135c-.076.09-.116.238-.116.446zm-.63-.003c0-.332.092-.591.278-.776.185-.185.445-.278.775-.278.34 0 .604.091.788.273.183.182.276.436.276.764 0 .238-.04.433-.122.586a.855.855 0 0 1-.347.355 1.16 1.16 0 0 1-.569.127c-.23 0-.42-.037-.573-.11a.87.87 0 0 1-.366-.347 1.16 1.16 0 0 1-.14-.594zm2.707-1.02h.83l.321 1.24.316-1.24h.83v2.036h-.515v-1.552l-.4 1.552h-.466l-.4-1.552v1.552h-.516v-2.035zm3.59.869h.154c.122 0 .207-.021.257-.064a.2.2 0 0 0 .074-.161.226.226 0 0 0-.064-.163c-.043-.044-.124-.066-.24-.066h-.181v.454zm-.636-.868h1.052c.228 0 .4.054.514.162.112.108.169.263.169.462 0 .206-.062.367-.186.482-.124.116-.314.174-.568.174h-.345v.755h-.636v-2.035zm2.322 0h.633v1.534h.985v.501h-1.618v-2.035zm2.187 0h.632v2.035h-.632v-2.035zm2.469 1.26l-.226-.733-.224.732h.45zm.13.44h-.718l-.1.335h-.644l.768-2.035h.69l.768 2.035h-.66l-.103-.336zm1.226-1.7h.588l.77 1.126v-1.126h.595v2.035h-.595l-.766-1.117v1.117h-.592v-2.035zm2.486 0h1.92v.502H63v1.533h-.63v-1.533h-.645v-.502zM29.915 21.91s-2.617-3.081-3.568-2.804c-.952.276-1.791 1.225-1.15 2.093.433.586 2.346 2.47 3.63 3.537.463.384 1.177.432 1.633.195.335-.174.819-.899 1.264-1.688.264-.469 4.854-9.508 9.769-12.984 0 0-2.27-1.616-5.71 2.675-3.49 4.355-5.868 8.976-5.868 8.976zm-17.814-7.722c-.339.222-.828.333-1.465.333h-.433v-2.68h.47c1.29 0 1.935.435 1.935 1.303 0 .474-.169.82-.507 1.044z"/><g opacity=".3"><g transform="translate(240.62 9.069)"><mask id="b" fill="#fff"><use xlink:href="#a"/></mask><path fill="#000" d="M6.034.001h-6c.364 2.035 2.098 3.577 4.185 3.577h4.66c.038-.192.058-.392.058-.596 0-1.646-1.3-2.98-2.903-2.98" mask="url(#b)"/></g><g fill="#000"><path d="M235.903 9.377h-2.708c-.69 0-1.298.461-1.49 1.13l-1.13 3.953h-.192l-1.13-3.952a1.552 1.552 0 0 0-1.489-1.13h-2.708v8.601h2.712v-5.083h.193l1.55 5.083h1.937l1.55-5.083h.193v5.083h2.712V9.377M237.065 17.979h2.712V9.377h-2.712zM249.294 13.287h-8.354v4.692h2.707v-2.737h1.295l1.422 2.738h3.099l-1.924-2.912a2.927 2.927 0 0 0 1.755-1.78m4.12-.762h-1.34l-1.769 5.255h1.31l.314-1.102h1.624l.32 1.102h1.311l-1.77-5.255m-1.187 3.124l.3-1.022c.094-.33.21-.904.21-.904h.015s.116.574.21.904l.292 1.022h-1.027m5.82-3.212c-1.61 0-2.732 1.176-2.732 2.705 0 1.558 1.056 2.727 2.731 2.727.954 0 1.639-.405 2.097-.882l-.655-.941c-.357.36-.867.647-1.383.647-1.005 0-1.472-.801-1.472-1.58 0-.758.43-1.5 1.472-1.5.465 0 .968.243 1.303.537l.59-.97c-.51-.508-1.253-.743-1.952-.743m5.083 0c-1.61 0-2.73 1.176-2.73 2.705 0 1.558 1.056 2.727 2.73 2.727.954 0 1.639-.405 2.098-.882l-.656-.941c-.357.36-.867.647-1.383.647-1.006 0-1.472-.801-1.472-1.58 0-.758.43-1.5 1.472-1.5.466 0 .968.243 1.303.537l.59-.97c-.51-.508-1.253-.743-1.952-.743M269.137 12.526h-3.262v5.255h3.364v-1.102h-2.09v-.992h1.587v-1.103h-1.587v-.955h1.988zM275.449 15.035h-5.325V17.8h1.274v-1.624h2.461c.778 0 1.36-.452 1.59-1.14m.006-1.036c-.075-.69-.661-1.282-1.434-1.452-.409-.089-.871-.05-1.289-.05h-3.122c.305 1.246 1.47 1.992 2.872 1.992h2.944c.042-.14.037-.424.03-.49-.003-.017.005.052 0 0M280.859 12.348h-4.941v1.228h1.761v4.627h1.42v-4.627h1.76z"/><path d="M220.06 14.106c0 6.946 5.6 12.596 12.48 12.596 3.82 0 7.241-1.967 9.532-4.702h37.605c.026-.165.04-.11.04-.285 0-1.328-.812-2.418-1.85-2.543l-.2-.015h-36.863l-.084.131c-1.712 2.743-4.736 4.571-8.18 4.571-5.328 0-9.663-4.375-9.663-9.753s4.335-9.753 9.664-9.753c3.233 0 6.098 1.612 7.854 4.08h3.284c-2.06-4.102-6.277-6.922-11.138-6.922-6.882 0-12.48 5.65-12.48 12.595z"/></g></g></g></svg>