<svg id="Layer_1" data-name="Layer 1" xmlns="http://www.w3.org/2000/svg" xmlns:xlink="http://www.w3.org/1999/xlink" width="78mm" height="22mm" viewBox="0 0 221.1 62.36"><defs><style>.cls-1{fill:#45a658;}.cls-2{fill:url(#linear-gradient);}</style><linearGradient id="linear-gradient" x1="349.98" y1="245.11" x2="415.18" y2="245.11" gradientUnits="userSpaceOnUse"><stop offset="0" stop-color="#5babe4"/><stop offset="0.33" stop-color="#58a2dd"/><stop offset="0.87" stop-color="#4f8ac9"/><stop offset="1" stop-color="#4c83c4"/></linearGradient></defs><title>Mir_Logo</title><path class="cls-1" d="M317.17,238.94l-14,30.26h-1.42V232.36H281.95v62.36h16.84a11.34,11.34,0,0,0,10.29-6.59l14-30.26h1.42v36.85h19.84V232.36H327.47A11.34,11.34,0,0,0,317.17,238.94Z" transform="translate(-194.07 -232.36)"/><path class="cls-1" d="M242.73,240.55l-8.27,28.65H233l-8.27-28.65a11.34,11.34,0,0,0-10.89-8.2H194.07v62.36h19.84V257.87h1.42l11.34,36.85h14.17l11.34-36.85h1.42v36.85h19.84V232.36H253.63A11.34,11.34,0,0,0,242.73,240.55Z" transform="translate(-194.07 -232.36)"/><path class="cls-1" d="M352.81,260.7v34h19.8V274.87h21.3a21.25,21.25,0,0,0,20-14.17H352.81Z" transform="translate(-194.07 -232.36)"/><path class="cls-2" d="M393.92,232.36H350a31.18,31.18,0,0,0,30.65,25.51h34.12A21.27,21.27,0,0,0,393.92,232.36Z" transform="translate(-194.07 -232.36)"/></svg>