<?xml version="1.0" encoding="UTF-8" standalone="no"?>
<svg
   xmlns:dc="http://purl.org/dc/elements/1.1/"
   xmlns:cc="http://creativecommons.org/ns#"
   xmlns:rdf="http://www.w3.org/1999/02/22-rdf-syntax-ns#"
   xmlns:svg="http://www.w3.org/2000/svg"
   xmlns="http://www.w3.org/2000/svg"
   viewBox="0 0 510.12 79.26667"
   height="79.26667"
   width="510.12"
   xml:space="preserve"
   version="1.1"
   id="svg2"><metadata
     id="metadata8"><rdf:RDF><cc:Work
         rdf:about=""><dc:format>image/svg+xml</dc:format><dc:type
           rdf:resource="http://purl.org/dc/dcmitype/StillImage" /></cc:Work></rdf:RDF></metadata><defs
     id="defs6"><clipPath
       id="clipPath18"
       clipPathUnits="userSpaceOnUse"><path
         id="path20"
         d="m 0,0 3825.89,0 0,594 L 0,594 0,0 Z" /></clipPath></defs><g
     transform="matrix(1.3333333,0,0,-1.3333333,0,79.266667)"
     id="g10"><g
       transform="scale(0.1)"
       id="g12"><g
         id="g14"><g
           clip-path="url(#clipPath18)"
           id="g16"><path
             id="path22"
             style="fill:#1d337a;fill-opacity:1;fill-rule:nonzero;stroke:none"
             d="m 1937.94,162.871 c 8.26,-0.742 20.19,-2.246 38.88,-2.246 49.41,0 98.01,19.453 127.17,55.406 29.23,35.106 44.94,80.75 44.94,136.828 0,75.524 -44.14,114.442 -117.49,114.442 -17.16,0 -27.64,-1.457 -35.89,-3.028 l -57.61,-301.402 z m -53.83,394.219 c 45.6,8.23 95.02,12 145.8,12 76.33,0 137.68,-15.028 183.25,-49.344 46.44,-35.957 74.88,-87.594 74.88,-166.887 0,-100.265 -43.4,-181.757 -104.75,-228.855 -59.1,-45.6563 -132.38,-66.6212 -247.59,-66.6212 -67.34,0 -122.62,6.7969 -144.32,11.2774 l 92.73,488.4298" /><path
             id="path24"
             style="fill:#1d337a;fill-opacity:1;fill-rule:nonzero;stroke:none"
             d="m 2450.32,466.582 c -33.68,0 -59.1,22.43 -59.1,59.106 0,41.878 33.65,68.792 71.04,68.792 35.89,0 61.32,-22.429 61.32,-59.105 0,-44.121 -33.6,-68.793 -72.54,-68.793 l -0.72,0 z m -145.86,-405.4297 69.55,368.0157 127.95,0 -69.58,-368.0157 -127.92,0" /><path
             id="path26"
             style="fill:#1d337a;fill-opacity:1;fill-rule:nonzero;stroke:none"
             d="m 2514.66,61.1523 40.37,211.6757 c 10.48,58.32 14.96,125.676 18.71,156.34 l 109.98,0 c -1.5,-24.719 -3.03,-48.676 -5.27,-73.281 l 2.24,0 c 26.97,47.89 68.08,81.535 118.93,81.535 7.54,0 14.27,0 21.71,-0.785 l -25.39,-123.434 -16.51,0 c -75.52,0 -100.98,-59.039 -113.73,-126.398 l -23.14,-125.6527 -127.9,0" /><path
             id="path28"
             style="fill:#1d337a;fill-opacity:1;fill-rule:nonzero;stroke:none"
             d="m 3059.95,321.453 c 0,12.723 -11.96,23.938 -32.93,23.938 -45.57,0 -68.07,-34.434 -71.82,-58.364 77.83,-0.742 104.75,10.473 104.75,33.692 l 0,0.734 z m 74.06,-239.3358 c -49.39,-23.9531 -106.99,-29.1563 -144.4,-29.1563 -107.72,0 -166.82,56.7931 -166.82,159.3051 0,112.152 80.81,225.156 219.93,225.156 76.31,0 136.16,-41.899 136.16,-117.422 0,-92.035 -83.78,-129.426 -235.64,-124.941 1.51,-8.254 5.99,-17.942 13.46,-24.668 14.25,-11.965 36.67,-18.731 65.83,-18.731 37.42,0 72.57,7.442 104.71,22.422 l 6.77,-91.9648" /><path
             id="path30"
             style="fill:#1d337a;fill-opacity:1;fill-rule:nonzero;stroke:none"
             d="m 3481.08,71.6211 c -25.45,-12.6758 -62.09,-18.7305 -103.22,-18.7305 -89.05,0 -160.14,52.3824 -160.14,155.6254 0,132.386 102.53,228.906 246.14,228.906 29.9,0 54.57,-4.484 73.3,-11.215 l -29.94,-96.519 c -11.96,4.488 -25.41,6.726 -44.09,6.726 -69.57,0 -112.19,-53.09 -112.19,-114.437 0,-47.172 32.84,-67.289 64.31,-67.289 28.42,0 48.61,5.937 67.29,13.457 l -1.46,-96.5239" /><path
             id="path32"
             style="fill:#1d337a;fill-opacity:1;fill-rule:nonzero;stroke:none"
             d="m 3770.56,533.922 -19.46,-104.754 74.79,0 -18.71,-96.496 -74.83,0 -20.9,-101.727 c -2.29,-11.996 -5.28,-30.683 -5.28,-41.109 0,-16.488 6.73,-29.211 29.95,-29.211 8.98,0 19.48,0 29.94,1.504 L 3749.58,61.9336 c -15.7,-6.0156 -45.64,-8.9727 -70.32,-8.9727 -69.6,0 -103.97,33.6485 -103.97,82.9961 0,19.441 2.25,38.914 7.51,68.074 l 25.42,128.641 -44.93,0 18.73,96.496 44.9,0 12.7,69.531 130.94,35.223" /><path
             id="path34"
             style="fill:#1d337a;fill-opacity:1;fill-rule:nonzero;stroke:none"
             d="M 480.637,564.266 343.523,217.535 288.086,512.344 c -6.524,32.855 -32.207,51.922 -60.785,51.922 l -224.16038,0 L 0,549.461 c 46.0078,-10.047 98.3008,-26.133 129.949,-43.289 19.406,-10.543 24.957,-19.692 31.324,-44.746 l 105.09,-406.5158 139.239,0 213.484,509.3558 -138.449,0" /><path
             id="path36"
             style="fill:#1d337a;fill-opacity:1;fill-rule:nonzero;stroke:none"
             d="M 675.609,564.266 566.656,54.9102 l 131.723,0 108.894,509.3558 -131.664,0 z m 795.451,-328.899 -39.42,191.289 -69.99,-191.289 109.41,0 z m 21.42,-104.351 -168.73,0 -27.48,-76.1058 -138.34,0 197.61,472.0118 c 9.48,22.652 30.85,37.344 56.13,37.344 l 112.49,0 106.33,-509.3558 -122.2,0 -15.81,76.1058 z m -327.71,90.175 C 1164.32,115.359 1073.76,46.9531 935.422,46.9531 876.426,47.5781 819.617,59.9102 788.828,73.9727 l 23.887,111.5933 c 30.625,-14.171 69.094,-33.125 135.371,-32.07 37.852,0.555 78.454,15.586 78.794,49.797 0.22,22.387 -17,38.309 -68.364,63.254 -49.856,24.449 -116.133,65.336 -115.34,138.617 0.84,99.148 92.461,168.414 222.674,168.414 50.75,0 91.57,-11.101 123.26,-22.613 l -23.1,-107.934 c -59.06,27.071 -111.04,25.235 -129.94,22.766 -38.074,-5 -55.511,-24.449 -55.902,-42.688 -1.289,-60.043 185.162,-67.445 184.602,-201.918" /><path
             id="path38"
             style="fill:#1d337a;fill-opacity:1;fill-rule:nonzero;stroke:none"
             d="m 1902.91,0 -20.82,0" /></g></g></g></g></svg>